<?xml version='1.0' encoding='utf-8'?>
<svg xmlns="http://www.w3.org/2000/svg" width="100%" height="100%" viewBox="0 0 1920 1080" data-theme="dark">
  <style>
        @font-face {
            font-family: 'Inter';
            src: url('assets/fonts/Inter-Regular.ttf') format('truetype');
            font-weight: 400;
            font-style: normal;
            font-display: swap;
        }
        @font-face {
            font-family: 'Inter';
            src: url('assets/fonts/Inter-Bold.ttf') format('truetype');
            font-weight: 600;
            font-style: normal;
            font-display: swap;
        }
        @font-face {
            font-family: 'Inter';
            src: url('assets/fonts/Inter-Bold.ttf') format('truetype');
            font-weight: 800;
            font-style: normal;
            font-display: swap;
        }
        
:root {
    --background: #0f172a;
    --panel: #1e293b;
    --primary-text: #f1f5f9;
    --muted-text: #94a3b8;
    --inverse-text: #0f172a;
    --border: #334155;
    --shadow-color: #000000;
    --icon-pad-bg: #1e293b;
    --art-glow: #7dd3fc;
    --art-glow-opacity: 0.18;
    --art-sheen: #ffffff;
    --art-sheen-opacity: 0.18;
    --art-shadow: #000000;
    --art-shadow-opacity: 0.28;
    --art-muted-line: #64748b;
    --art-panel-tint: #1e293b;
    --font-family: 'Inter', 'Segoe UI', 'Kalam', Roboto, Helvetica, Arial, sans-serif;
    --radius-xl: 16px;
    --font-family-headline: 'Inter', 'Segoe UI', 'Kalam', Roboto, Helvetica, Arial, sans-serif;
    --font-family-body: 'Inter', 'Segoe UI', 'Kalam', Roboto, Helvetica, Arial, sans-serif;
    --font-heading: 'Inter', 'Segoe UI', 'Kalam', Roboto, Helvetica, Arial, sans-serif;
    --font-body: 'Inter', 'Segoe UI', 'Kalam', Roboto, Helvetica, Arial, sans-serif;
    --font-size-h1: 56px;
    --font-size-h2: 40px;
    --font-size-h3: 28px;
    --font-size-body: 24px;
    --font-size-caption: 18px;
    --secondary-text: var(--muted-text);
    --panel-border: var(--border);
    --font-weight-normal: 400;
    --font-weight-medium: 500;
    --font-weight-semibold: 600;
    --font-weight-bold: 700;
    --spacing-gutter-pct: 0.07;
    --spacing-top-pct: 0.15;
    --spacing-bottom-pct: 0.07;
    --spacing-title-y-pct: 0.055;
    --accent-1: #93c5fd;
    --accent-2: #86efac;
    --accent-3: #fcd34d;
    --accent-4: #f9a8d4;
    --accent-5: #c4b5fd;
    --accent-6: #a5f3fc;
}
:root[data-theme="dark"] {
    --background: #0f172a;
    --panel: #1e293b;
    --primary-text: #f1f5f9;
    --muted-text: #94a3b8;
    --inverse-text: #0f172a;
    --border: #334155;
    --shadow-color: #000000;
    --icon-pad-bg: #1e293b;
    --art-glow: #7dd3fc;
    --art-glow-opacity: 0.18;
    --art-sheen: #ffffff;
    --art-sheen-opacity: 0.18;
    --art-shadow: #000000;
    --art-shadow-opacity: 0.28;
    --art-muted-line: #64748b;
    --art-panel-tint: #1e293b;
    --accent-1: #93c5fd;
    --accent-2: #86efac;
    --accent-3: #fcd34d;
    --accent-4: #f9a8d4;
    --accent-5: #c4b5fd;
    --accent-6: #a5f3fc;
}
:root[data-theme="light"] {
    --background: #f8fafc;
    --panel: #ffffff;
    --primary-text: #0f172a;
    --muted-text: #64748b;
    --inverse-text: #ffffff;
    --border: #e2e8f0;
    --shadow-color: #000000;
    --icon-pad-bg: #1e293b;
    --art-glow: #0891b2;
    --art-glow-opacity: 0.10;
    --art-sheen: #ffffff;
    --art-sheen-opacity: 0.34;
    --art-shadow: #0f172a;
    --art-shadow-opacity: 0.14;
    --art-muted-line: #94a3b8;
    --art-panel-tint: #f1f5f9;
    --accent-1: #3b82f6;
    --accent-2: #22c55e;
    --accent-3: #f59e0b;
    --accent-4: #ec4899;
    --accent-5: #8b5cf6;
    --accent-6: #06b6d4;
}</style>
  <rect x="0" y="0" width="1.92E+3" height="1.08E+3" fill="#252a34" stroke="none" id="programmatic_background"/>
  <line id="HEADER_DECOR" x1="960.0" x2="1080.0" y1="105.0" y2="105.0" stroke="var(--accent-1)" stroke-width="6" stroke-linecap="round"/>
  <defs>
    <filter id="svg104fd26e-glow" x="-20%" y="-20%" width="140%" height="140%">
      <feGaussianBlur stdDeviation="8" result="blur"/>
      <feComposite in="SourceGraphic" in2="blur" operator="over"/>
    </filter>
    <filter id="svg104fd26e-drop-shadow" x="-10%" y="-10%" width="120%" height="120%">
      <feDropShadow dx="0" dy="8" stdDeviation="6" flood-color="#000000" flood-opacity="0.25"/>
    </filter>
    <linearGradient id="svg104fd26e-bg-grad" x1="0%" y1="0%" x2="100%" y2="100%">
      <stop offset="0%" stop-color="var(--background)"/>
      <stop offset="100%" stop-color="var(--panel)"/>
    </linearGradient>
    <pattern id="svg104fd26e-dot-grid" x="0" y="0" width="40" height="40" patternUnits="userSpaceOnUse">
      <circle cx="2" cy="2" r="1.5" fill="var(--muted-text)" opacity="0.1"/>
    </pattern>
    <linearGradient id="svg104fd26e-fold_0" x1="0" y1="0" x2="0" y2="1">
      <stop offset="0%" stop-color="var(--accent-1)"/>
      <stop offset="100%" stop-color="var(--accent-2)"/>
    </linearGradient>
    <linearGradient id="svg104fd26e-fold_1" x1="0" y1="0" x2="0" y2="1">
      <stop offset="0%" stop-color="var(--accent-2)"/>
      <stop offset="100%" stop-color="var(--accent-3)"/>
    </linearGradient>
    <linearGradient id="svg104fd26e-fold_2" x1="0" y1="0" x2="0" y2="1">
      <stop offset="0%" stop-color="var(--accent-3)"/>
      <stop offset="100%" stop-color="var(--accent-4)"/>
    </linearGradient>
    <linearGradient id="svg104fd26e-fold_3" x1="0" y1="0" x2="0" y2="1">
      <stop offset="0%" stop-color="var(--accent-4)"/>
      <stop offset="100%" stop-color="var(--accent-5)"/>
    </linearGradient>
    <radialGradient id="svg104fd26e-universal-edge-vignette" cx="50%" cy="50%" r="72%">
      <stop offset="0%" stop-color="var(--background)" stop-opacity="0"/>
      <stop offset="72%" stop-color="var(--background)" stop-opacity="0.12"/>
      <stop offset="100%" stop-color="var(--primary-text)" stop-opacity="0.08"/>
    </radialGradient>
    <linearGradient id="svg104fd26e-universal-surface-sheen" x1="0%" y1="0%" x2="100%" y2="100%">
      <stop offset="0%" stop-color="var(--art-sheen)" stop-opacity="var(--art-sheen-opacity)"/>
      <stop offset="46%" stop-color="var(--art-sheen)" stop-opacity="0.035"/>
      <stop offset="100%" stop-color="var(--art-panel-tint)" stop-opacity="0.14"/>
    </linearGradient>
    <radialGradient id="svg104fd26e-universal-icon-aura" cx="50%" cy="42%" r="64%">
      <stop offset="0%" stop-color="var(--art-glow)" stop-opacity="var(--art-glow-opacity)"/>
      <stop offset="100%" stop-color="var(--background)" stop-opacity="0"/>
    </radialGradient>
    <filter id="svg104fd26e-text-glow" x="-20%" y="-20%" width="140%" height="140%">
      <feDropShadow dx="0" dy="0" stdDeviation="2" flood-color="#000000" flood-opacity="0.4"/>
    </filter>
    <filter id="svg104fd26e-shadow" x="-30%" y="-30%" width="160%" height="160%">
      <feDropShadow dx="0" dy="2" stdDeviation="3" flood-color="#000000" flood-opacity="0.08"/>
      <feDropShadow dx="0" dy="6" stdDeviation="10" flood-color="#000000" flood-opacity="0.12"/>
    </filter>
    <marker id="svg104fd26e-arrowhead" markerWidth="10" markerHeight="7" refX="9" refY="3.5" orient="auto" markerUnits="strokeWidth">
      <polygon points="0 0, 10 3.5, 0 7" fill="var(--muted-text)" opacity="0.6"/>
    </marker>
  </defs>
  <rect width="100%" height="100%" fill="var(--background)" id="CANVAS_BG"/>
  <rect id="UNIVERSAL_EDGE_VIGNETTE" width="100%" height="100%" fill="url(#svg104fd26e-universal-edge-vignette)" opacity="0.62"/>
  <rect width="1920" height="1080" fill="url(#svg104fd26e-bg-grad)"/>
  <rect width="1920" height="1080" fill="url(#svg104fd26e-dot-grid)"/>
  <rect id="TITLE_FRAME" x="134" y="40" width="1652" height="70" fill="none" pointer-events="none"/>
  <text id="TITLE" x="960.0" y="59" fill="#f1f5f9" font-family="var(--font-heading)" font-size="48" font-weight="900" text-anchor="middle" filter="url(#svg104fd26e-drop-shadow)" style="font-size: 60px; font-family: Inter, Segoe UI, Kalam, Roboto, Helvetica, Arial, sans-serif; font-weight: 700; letter-spacing:-1.2px;" data-final-font-size="60">
    <tspan x="960.0" dy="68.00px">The Tully Saucer Nest Lifecycle</tspan>
  </text>
  <g id="DIAGRAM_MAIN">
    <!-- Fold 0 -->
    <polygon points="470.0,290.0 470.0,390.0 370.0,790.0 370.0,690.0" fill="url(#svg104fd26e-fold_0)"/>
    <polygon points="470.0,290.0 470.0,390.0 370.0,790.0 370.0,690.0" fill="#000" opacity="0.3"/>
    <!-- Fold 1 -->
    <polygon points="830.0,690.0 830.0,790.0 730.0,390.0 730.0,290.0" fill="url(#svg104fd26e-fold_1)"/>
    <polygon points="830.0,690.0 830.0,790.0 730.0,390.0 730.0,290.0" fill="#000" opacity="0.3"/>
    <!-- Fold 2 -->
    <polygon points="1190.0,290.0 1190.0,390.0 1090.0,790.0 1090.0,690.0" fill="url(#svg104fd26e-fold_2)"/>
    <polygon points="1190.0,290.0 1190.0,390.0 1090.0,790.0 1090.0,690.0" fill="#000" opacity="0.3"/>
    <!-- Fold 3 -->
    <polygon points="1550.0,690.0 1550.0,790.0 1450.0,390.0 1450.0,290.0" fill="url(#svg104fd26e-fold_3)"/>
    <polygon points="1550.0,690.0 1550.0,790.0 1450.0,390.0 1450.0,290.0" fill="#000" opacity="0.3"/>
    <!-- Ribbon Segment 1 -->
    <rect x="10.0" y="290.0" width="460.0" height="100" rx="12" fill="var(--panel)" stroke="var(--accent-1)" stroke-width="4" filter="url(#svg104fd26e-drop-shadow)"/>
    <!-- Ribbon Segment 2 -->
    <rect x="370.0" y="690.0" width="460.0" height="100" rx="12" fill="var(--panel)" stroke="var(--accent-2)" stroke-width="4" filter="url(#svg104fd26e-drop-shadow)"/>
    <!-- Ribbon Segment 3 -->
    <rect x="730.0" y="290.0" width="460.0" height="100" rx="12" fill="var(--panel)" stroke="var(--accent-3)" stroke-width="4" filter="url(#svg104fd26e-drop-shadow)"/>
    <!-- Ribbon Segment 4 -->
    <rect x="1090.0" y="690.0" width="460.0" height="100" rx="12" fill="var(--panel)" stroke="var(--accent-4)" stroke-width="4" filter="url(#svg104fd26e-drop-shadow)"/>
    <!-- Ribbon Segment 5 -->
    <rect x="1450.0" y="290.0" width="460.0" height="100" rx="12" fill="var(--panel)" stroke="var(--accent-5)" stroke-width="4" filter="url(#svg104fd26e-drop-shadow)"/>
    <circle id="ITEM_1_BORDER" cx="80.0" cy="340" r="34" fill="var(--background)" stroke="var(--accent-1)" stroke-width="3" filter="url(#svg104fd26e-glow)"/>
    <circle id="ITEM_1_STROKE" cx="80.0" cy="340" r="40" fill="transparent" stroke="var(--accent-1)" stroke-width="2" stroke-dasharray="4 4" stroke-opacity="1.0"/>
    <g id="ITEM_1_ICON" transform="translate(56.0, 316)">
      <g transform="translate(-6.755555555555556,-6.044444444444444) scale(1.8962962962962964)" vector-effect="non-scaling-stroke" fill="var(--accent-1)" fill-opacity="1.0" stroke="none">
        <path fill="var(--accent-1)" d="M12 20a6 6 0 0 1-6-6c0-4 6-10.75 6-10.75S18 10 18 14a6 6 0 0 1-6 6" vector-effect="non-scaling-stroke" stroke="none"/>
      </g>
    </g>
    <circle id="ITEM_2_BORDER" cx="440.0" cy="740" r="34" fill="var(--background)" stroke="var(--accent-2)" stroke-width="3" filter="url(#svg104fd26e-glow)"/>
    <circle id="ITEM_2_STROKE" cx="440.0" cy="740" r="40" fill="transparent" stroke="var(--accent-2)" stroke-width="2" stroke-dasharray="4 4" stroke-opacity="1.0"/>
    <g id="ITEM_2_ICON" transform="translate(416.0, 716)">
      <g transform="translate(-1.0578512396694215,-1.0578512396694215) scale(0.06611570247933884)" vector-effect="non-scaling-stroke" fill="var(--accent-2)" fill-opacity="1.0" stroke="none">
        <path fill="var(--accent-2)" d="M257.625 16.75c-132.32 0-239.78 107.46-239.78 239.78s107.46 239.783 239.78 239.783s239.78-107.462 239.78-239.782s-107.46-239.78-239.78-239.78zm0 17.906c58.24 0 111.19 22.37 150.75 59c-53.35-22.728-121.28 4.247-156.97-18.594c15.65 28.19 42.047 29.17 74.032 27.438c22.816 27.9 61.838 17.83 106.782 17a221 221 0 0 1 38.31 74.406c-23.755 6.825-72.6 4.008-92.374-.875c8.236 8.03 19.117 12.027 32.094 14.595c-48.222 1.067-94.365 5.457-124.375-11.688c8.84 14.213 20.115 23.206 33.28 28.625c-19.962-.433-38.48-3.21-54.905-11.093c26.83 30.444 69.098 30.62 114.47 26.28c31.063 11.3 66.71 13.98 100.717 12.375c.03 1.47.063 2.93.063 4.406c0 19.2-2.428 37.834-7 55.595c-9.933-2.477-20.396-4.745-31.313-6.78l6.907-25.44l-18.03-4.874l-7.377 27.126c-14.308-2.26-29.233-4.163-44.593-5.75l3.344-31.375l-18.594-2l-3.375 31.626c-17.664-1.49-35.795-2.55-54.095-3.22l1.375-34.623l-18.656-.75l-1.406 34.812c-11.082-.238-22.19-.33-33.282-.28c-6.816.03-13.623.142-20.406.28l-1.5-37.72l-18.656.75l1.5 37.47a1198 1198 0 0 0-52.03 2.938l-4.033-37.688l-18.56 1.97l3.968 37.342c-14.93 1.44-29.428 3.16-43.22 5.157l-8.812-32.5l-18.03 4.906l8.28 30.5c-13.984 2.39-27.106 5.07-39.187 8.063c-4.562-17.742-6.97-36.357-6.97-55.532c0-30.21 6.03-58.983 16.938-85.217c45.587 15.482 137.805-12.232 208.062 16.468c-13.577-12.7-29.093-20.01-45.53-24.53c42.76 4.614 101.767-13.058 162.343 11.688c-13.39-12.526-28.787-19.426-44.97-23.97c-31.258-26.39-71.34-28.437-109.812-27.437c-36.037-25.845-82.634-23.168-124.31-21.655c40.3-41.466 96.683-67.22 159.155-67.22zm-4.22 275.125c10.84-.048 21.707.064 32.532.283l-1 24.75a1361 1361 0 0 0-50.156.312l-1-25.094c6.533-.125 13.063-.22 19.626-.25zm-38.31.783l1 25.156c-16.37.62-32.73 1.506-49.064 2.655l-2.686-25.094c16.482-1.244 33.504-2.136 50.75-2.717m89.53.03c17.893.626 35.6 1.606 52.813 3l-2.563 23.97a1245 1245 0 0 0-51.22-2.407zm-158.906 4.25l2.655 24.97a1691 1691 0 0 0-36.47 3.375l-6.436-23.75c12.845-1.773 26.32-3.3 40.25-4.594zm230.343.438c14.38 1.44 28.335 3.135 41.687 5.158l-6.063 22.343a1175 1175 0 0 0-38.156-3.81l2.533-23.69zm-289.188 6.97l6.22 23a1913 1913 0 0 0-36.845 4.594a221 221 0 0 1-8.063-19.844c11.808-2.878 24.784-5.464 38.688-7.75m349.375 1.28c10.804 1.955 21.1 4.112 30.813 6.5a221 221 0 0 1-7.813 19.283a1121 1121 0 0 0-28.844-4.22z" vector-effect="non-scaling-stroke" stroke="none"/>
      </g>
    </g>
    <circle id="ITEM_3_BORDER" cx="800.0" cy="340" r="34" fill="var(--background)" stroke="var(--accent-3)" stroke-width="3" filter="url(#svg104fd26e-glow)"/>
    <circle id="ITEM_3_STROKE" cx="800.0" cy="340" r="40" fill="transparent" stroke="var(--accent-3)" stroke-width="2" stroke-dasharray="4 4" stroke-opacity="1.0"/>
    <g id="ITEM_3_ICON" transform="translate(776.0, 316)">
      <g transform="translate(-1.0666666666666667,-3.2) scale(1.0666666666666667)">
        <path d="M4 7C4 5.89543 4.89543 5 6 5H29C30.1046 5 31 5.89543 31 7V29C31 30.1046 30.1046 31 29 31H4C2.34315 31 1 29.6569 1 28V10C1 8.34314 2.34315 7 4 7Z" fill="#B4ACBC"/>
        <path d="M28 10C28 8.89543 27.1046 8 26 8H4C2.89543 8 2 8.89543 2 10V28C2 29.1046 2.89543 30 4 30H29.5C28.6716 30 28 29.3284 28 28.5V10Z" fill="#F3EEF8"/>
        <path d="M4 11C4 10.4477 4.44772 10 5 10H25C25.5523 10 26 10.4477 26 11C26 11.5523 25.5523 12 25 12H5C4.44772 12 4 11.5523 4 11ZM4 14.5C4 14.2239 4.22386 14 4.5 14H25.5C25.7761 14 26 14.2239 26 14.5C26 14.7761 25.7761 15 25.5 15H4.5C4.22386 15 4 14.7761 4 14.5ZM19.5 17C19.2239 17 19 17.2239 19 17.5C19 17.7761 19.2239 18 19.5 18H25.5C25.7761 18 26 17.7761 26 17.5C26 17.2239 25.7761 17 25.5 17H19.5ZM19 20.5C19 20.2239 19.2239 20 19.5 20H25.5C25.7761 20 26 20.2239 26 20.5C26 20.7761 25.7761 21 25.5 21H19.5C19.2239 21 19 20.7761 19 20.5ZM19.5 23C19.2239 23 19 23.2239 19 23.5C19 23.7761 19.2239 24 19.5 24H25.5C25.7761 24 26 23.7761 26 23.5C26 23.2239 25.7761 23 25.5 23H19.5ZM19 26.5C19 26.2239 19.2239 26 19.5 26H25.5C25.7761 26 26 26.2239 26 26.5C26 26.7761 25.7761 27 25.5 27H19.5C19.2239 27 19 26.7761 19 26.5ZM6 17C4.89543 17 4 17.8954 4 19V25C4 26.1046 4.89543 27 6 27H15C16.1046 27 17 26.1046 17 25V19C17 17.8954 16.1046 17 15 17H6Z" fill="#998EA4"/>
      </g>
    </g>
    <circle id="ITEM_4_BORDER" cx="1160.0" cy="740" r="34" fill="var(--background)" stroke="var(--accent-4)" stroke-width="3" filter="url(#svg104fd26e-glow)"/>
    <circle id="ITEM_4_STROKE" cx="1160.0" cy="740" r="40" fill="transparent" stroke="var(--accent-4)" stroke-width="2" stroke-dasharray="4 4" stroke-opacity="1.0"/>
    <g id="ITEM_4_ICON" transform="translate(1136.0, 716)">
      <g transform="translate(-2.2857142857142856,-1.9999999999999991) scale(1.1428571428571428)">
        <path d="M25.0642 23.4047L23.9155 20.598L22.2011 21.2996L23.3511 24.1097L23.3525 24.113C23.5183 24.5137 23.3281 24.9545 22.9426 25.1096L18.0368 27.1219L18.0342 27.123C17.6335 27.2888 17.1927 27.0987 17.0376 26.7132L15.8855 23.898L14.1711 24.5997L15.3202 27.4074C15.8659 28.7594 17.403 29.3881 18.741 28.8353L18.7425 28.8347L23.6372 26.8268C24.9889 26.281 25.6173 24.7444 25.065 23.4066L25.0642 23.4047ZM8 23.5L9.70824 26.7789C10.3282 27.4289 10.2982 28.4589 9.63824 29.0689C8.98824 29.6789 7.95824 29.6489 7.34824 28.9989L2.43824 23.7889C1.82824 23.1389 1.85824 22.1089 2.50824 21.4989C3.15824 20.8889 4.18824 20.9189 4.79824 21.5689L8 23.5Z" fill="#FFB02E"/>
        <path d="M29.2283 15.0788L17.6783 2.82884C16.4083 1.47884 14.1783 1.82887 13.3883 3.50887L4.79834 21.5689L9.76834 26.8389L28.3083 19.3288C30.0183 18.6388 30.4983 16.4288 29.2283 15.0788Z" fill="#F9C23C"/>
      </g>
    </g>
    <circle id="ITEM_5_BORDER" cx="1520.0" cy="340" r="34" fill="var(--background)" stroke="var(--accent-5)" stroke-width="3" filter="url(#svg104fd26e-glow)"/>
    <circle id="ITEM_5_STROKE" cx="1520.0" cy="340" r="40" fill="transparent" stroke="var(--accent-5)" stroke-width="2" stroke-dasharray="4 4" stroke-opacity="1.0"/>
    <g id="ITEM_5_ICON" transform="translate(1496.0, 316)">
      <g transform="translate(-2.2857142857142856,-3.428571428571427) scale(1.1428571428571428)" vector-effect="non-scaling-stroke" fill="var(--accent-5)" fill-opacity="1.0" stroke="none">
        <path fill="var(--accent-5)" d="M17 28V17h1a2 2 0 0 0 2-2v-4a2 2 0 0 0-2-2h-4a2 2 0 0 0-2 2v4a2 2 0 0 0 2 2h1v11H2v2h28v-2Zm-3-17h4l.002 4H14Z" vector-effect="non-scaling-stroke" stroke="none"/>
        <path fill="var(--accent-5)" d="M9.333 18.217a7 7 0 0 1 0-10.434l1.333 1.49a5 5 0 0 0 0 7.453zm13.334 0l-1.334-1.49a5 5 0 0 0 0-7.454l1.334-1.49a7 7 0 0 1 0 10.434" vector-effect="non-scaling-stroke" stroke="none"/>
        <path fill="var(--accent-5)" d="M6.4 21.8a11.002 11.002 0 0 1 0-17.6l1.2 1.6a9 9 0 0 0 0 14.401zm19.2 0l-1.2-1.6a9 9 0 0 0 0-14.401l1.2-1.6a11.002 11.002 0 0 1 0 17.601" vector-effect="non-scaling-stroke" stroke="none"/>
      </g>
    </g>
    <!-- Node 1 Text -->
    <rect id="ITEM_1_HEAD_FRAME" x="40.0" y="165" width="400" height="35" fill="none" pointer-events="none"/>
    <rect id="ITEM_1_BODY_FRAME" x="50" y="200" width="380" height="120" fill="none" pointer-events="none"/>
    <rect id="ITEM_1_TEXT_BG" x="22.0" y="149.0" width="436.0" height="187.0" rx="22" fill="var(--panel)" fill-opacity="0.94" stroke="var(--primary-text)" stroke-opacity="0.12" stroke-width="1.5"/>
    <text id="ITEM_1_HEAD" data-bg-id="ITEM_1_TEXT_BG" x="240.0" y="165.0" fill="var(--accent-1)" font-family="var(--font-heading)" font-size="26" font-weight="bold" text-anchor="middle" fill-opacity="1.0" stroke="none" style="font-size: 30px; font-family: Inter, Segoe UI, Kalam, Roboto, Helvetica, Arial, sans-serif; font-weight: 700; letter-spacing:-0.4px;" data-final-font-size="30">
      <tspan x="240.0" dy="25.75px">Initial Sighting</tspan>
    </text>
    <text id="ITEM_1_BODY" data-bg-id="ITEM_1_TEXT_BG" x="240.0" y="200.0" fill="var(--primary-text)" font-family="var(--font-body)" font-size="20" opacity="0.8" text-anchor="middle" style="font-size: 26px; font-family: Inter, Segoe UI, Kalam, Roboto, Helvetica, Arial, sans-serif; font-weight: 400;" data-final-font-size="26">
      <tspan x="240.0" dy="26.86px">George Pedley observes saucer-</tspan>
      <tspan x="240.0" dy="29.90px">shaped object rising</tspan>
      <tspan x="240.0" dy="29.90px">from lagoon</tspan>
    </text>
    <!-- Node 2 Text -->
    <rect id="ITEM_2_HEAD_FRAME" x="400.0" y="810.0" width="400" height="40" fill="none" pointer-events="none"/>
    <rect id="ITEM_2_BODY_FRAME" x="410" y="850.0" width="380" height="140" fill="none" pointer-events="none"/>
    <rect id="ITEM_2_TEXT_BG" x="382.0" y="794.0" width="436.0" height="212.0" rx="22" fill="var(--panel)" fill-opacity="0.94" stroke="var(--primary-text)" stroke-opacity="0.12" stroke-width="1.5"/>
    <text id="ITEM_2_HEAD" data-bg-id="ITEM_2_TEXT_BG" x="600.0" y="810.0" fill="var(--accent-2)" font-family="var(--font-heading)" font-size="26" font-weight="bold" text-anchor="middle" fill-opacity="1.0" stroke="none" style="font-size: 30px; font-family: Inter, Segoe UI, Kalam, Roboto, Helvetica, Arial, sans-serif; font-weight: 700; letter-spacing:-0.4px;" data-final-font-size="30">
      <tspan x="600.0" dy="28.25px">Physical Evidence</tspan>
    </text>
    <text id="ITEM_2_BODY" data-bg-id="ITEM_2_TEXT_BG" x="600.0" y="850.0" fill="var(--primary-text)" font-family="var(--font-body)" font-size="20" opacity="0.8" text-anchor="middle" style="font-size: 26px; font-family: Inter, Segoe UI, Kalam, Roboto, Helvetica, Arial, sans-serif; font-weight: 400;" data-final-font-size="26">
      <tspan x="600.0" dy="30.86px">Investigators document</tspan>
      <tspan x="600.0" dy="29.90px">circular area of</tspan>
      <tspan x="600.0" dy="29.90px">flattened reeds</tspan>
    </text>
    <!-- Node 3 Text -->
    <rect id="ITEM_3_HEAD_FRAME" x="760.0" y="165" width="400" height="35" fill="none" pointer-events="none"/>
    <rect id="ITEM_3_BODY_FRAME" x="770" y="200" width="380" height="120" fill="none" pointer-events="none"/>
    <rect id="ITEM_3_TEXT_BG" x="742.0" y="149.0" width="436.0" height="187.0" rx="22" fill="var(--panel)" fill-opacity="0.94" stroke="var(--primary-text)" stroke-opacity="0.12" stroke-width="1.5"/>
    <text id="ITEM_3_HEAD" data-bg-id="ITEM_3_TEXT_BG" x="960.0" y="165.0" fill="var(--accent-3)" font-family="var(--font-heading)" font-size="26" font-weight="bold" text-anchor="middle" fill-opacity="1.0" stroke="none" style="font-size: 30px; font-family: Inter, Segoe UI, Kalam, Roboto, Helvetica, Arial, sans-serif; font-weight: 700; letter-spacing:-0.4px;" data-final-font-size="30">
      <tspan x="960.0" dy="25.75px">Media Expansion</tspan>
    </text>
    <text id="ITEM_3_BODY" data-bg-id="ITEM_3_TEXT_BG" x="960.0" y="200.0" fill="var(--primary-text)" font-family="var(--font-body)" font-size="20" opacity="0.8" text-anchor="middle" style="font-size: 26px; font-family: Inter, Segoe UI, Kalam, Roboto, Helvetica, Arial, sans-serif; font-weight: 400;" data-final-font-size="26">
      <tspan x="960.0" dy="32.84px">Newspapers across Australia</tspan>
      <tspan x="960.0" dy="29.90px">cover the dramatic incident</tspan>
    </text>
    <!-- Node 4 Text -->
    <rect id="ITEM_4_HEAD_FRAME" x="1120.0" y="810.0" width="400" height="40" fill="none" pointer-events="none"/>
    <rect id="ITEM_4_BODY_FRAME" x="1130" y="850.0" width="380" height="140" fill="none" pointer-events="none"/>
    <rect id="ITEM_4_TEXT_BG" x="1102.0" y="794.0" width="436.0" height="212.0" rx="22" fill="var(--panel)" fill-opacity="0.94" stroke="var(--primary-text)" stroke-opacity="0.12" stroke-width="1.5"/>
    <text id="ITEM_4_HEAD" data-bg-id="ITEM_4_TEXT_BG" x="1320.0" y="810.0" fill="var(--accent-4)" font-family="var(--font-heading)" font-size="26" font-weight="bold" text-anchor="middle" fill-opacity="1.0" stroke="none" style="font-size: 30px; font-family: Inter, Segoe UI, Kalam, Roboto, Helvetica, Arial, sans-serif; font-weight: 700; letter-spacing:-0.4px;" data-final-font-size="30">
      <tspan x="1320.0" dy="28.25px">Public Mythology</tspan>
    </text>
    <text id="ITEM_4_BODY" data-bg-id="ITEM_4_TEXT_BG" x="1320.0" y="850.0" fill="var(--primary-text)" font-family="var(--font-body)" font-size="20" opacity="0.8" text-anchor="middle" style="font-size: 26px; font-family: Inter, Segoe UI, Kalam, Roboto, Helvetica, Arial, sans-serif; font-weight: 400;" data-final-font-size="26">
      <tspan x="1320.0" dy="36.84px">Story simplifies into a</tspan>
      <tspan x="1320.0" dy="29.90px">landing and physical mark</tspan>
    </text>
    <!-- Node 5 Text -->
    <rect id="ITEM_5_HEAD_FRAME" x="1480.0" y="165" width="400" height="35" fill="none" pointer-events="none"/>
    <rect id="ITEM_5_BODY_FRAME" x="1490" y="200" width="380" height="120" fill="none" pointer-events="none"/>
    <rect id="ITEM_5_TEXT_BG" x="1462.0" y="149.0" width="436.0" height="187.0" rx="22" fill="var(--panel)" fill-opacity="0.94" stroke="var(--primary-text)" stroke-opacity="0.12" stroke-width="1.5"/>
    <text id="ITEM_5_HEAD" data-bg-id="ITEM_5_TEXT_BG" x="1680.0" y="165.0" fill="var(--accent-5)" font-family="var(--font-heading)" font-size="26" font-weight="bold" text-anchor="middle" fill-opacity="1.0" stroke="none" style="font-size: 30px; font-family: Inter, Segoe UI, Kalam, Roboto, Helvetica, Arial, sans-serif; font-weight: 700; letter-spacing:-0.4px;" data-final-font-size="30">
      <tspan x="1680.0" dy="25.75px">Scientific Debate</tspan>
    </text>
    <text id="ITEM_5_BODY" data-bg-id="ITEM_5_TEXT_BG" x="1680.0" y="200.0" fill="var(--primary-text)" font-family="var(--font-body)" font-size="20" opacity="0.8" text-anchor="middle" style="font-size: 26px; font-family: Inter, Segoe UI, Kalam, Roboto, Helvetica, Arial, sans-serif; font-weight: 400;" data-final-font-size="26">
      <tspan x="1680.0" dy="26.86px">Meteorological explanations</tspan>
      <tspan x="1680.0" dy="29.90px">challenge the extraordinary</tspan>
      <tspan x="1680.0" dy="29.90px">craft claim</tspan>
    </text>
  </g>
</svg>
