<?xml version='1.0' encoding='utf-8'?>
<svg xmlns="http://www.w3.org/2000/svg" width="1920" height="1080" viewBox="0 0 1920 1080" data-theme="light">
  <style>
        @font-face {
            font-family: 'Inter';
            src: url('assets/fonts/Inter-Regular.ttf') format('truetype');
            font-weight: 400;
            font-style: normal;
            font-display: swap;
        }
        @font-face {
            font-family: 'Inter';
            src: url('assets/fonts/Inter-Bold.ttf') format('truetype');
            font-weight: 600;
            font-style: normal;
            font-display: swap;
        }
        @font-face {
            font-family: 'Inter';
            src: url('assets/fonts/Inter-Bold.ttf') format('truetype');
            font-weight: 800;
            font-style: normal;
            font-display: swap;
        }
        
:root {
    --background: #f8fafc;
    --panel: #ffffff;
    --primary-text: #0f172a;
    --muted-text: #64748b;
    --inverse-text: #ffffff;
    --border: #e2e8f0;
    --shadow-color: #000000;
    --icon-pad-bg: #1e293b;
    --art-glow: #0891b2;
    --art-glow-opacity: 0.10;
    --art-sheen: #ffffff;
    --art-sheen-opacity: 0.34;
    --art-shadow: #0f172a;
    --art-shadow-opacity: 0.14;
    --art-muted-line: #94a3b8;
    --art-panel-tint: #f1f5f9;
    --font-family: 'Inter', 'Segoe UI', 'Kalam', Roboto, Helvetica, Arial, sans-serif;
    --radius-xl: 16px;
    --font-family-headline: 'Inter', 'Segoe UI', 'Kalam', Roboto, Helvetica, Arial, sans-serif;
    --font-family-body: 'Inter', 'Segoe UI', 'Kalam', Roboto, Helvetica, Arial, sans-serif;
    --font-heading: 'Inter', 'Segoe UI', 'Kalam', Roboto, Helvetica, Arial, sans-serif;
    --font-body: 'Inter', 'Segoe UI', 'Kalam', Roboto, Helvetica, Arial, sans-serif;
    --font-size-h1: 56px;
    --font-size-h2: 40px;
    --font-size-h3: 28px;
    --font-size-body: 24px;
    --font-size-caption: 18px;
    --secondary-text: var(--muted-text);
    --panel-border: var(--border);
    --font-weight-normal: 400;
    --font-weight-medium: 500;
    --font-weight-semibold: 600;
    --font-weight-bold: 700;
    --spacing-gutter-pct: 0.07;
    --spacing-top-pct: 0.15;
    --spacing-bottom-pct: 0.07;
    --spacing-title-y-pct: 0.055;
    --accent-1: #d97706;
    --accent-2: #ea580c;
    --accent-3: #dc2626;
    --accent-4: #65a30d;
    --accent-5: #16a34a;
    --accent-6: #92400e;
}
:root[data-theme="dark"] {
    --background: #0f172a;
    --panel: #1e293b;
    --primary-text: #f1f5f9;
    --muted-text: #94a3b8;
    --inverse-text: #0f172a;
    --border: #334155;
    --shadow-color: #000000;
    --icon-pad-bg: #1e293b;
    --art-glow: #7dd3fc;
    --art-glow-opacity: 0.18;
    --art-sheen: #ffffff;
    --art-sheen-opacity: 0.18;
    --art-shadow: #000000;
    --art-shadow-opacity: 0.28;
    --art-muted-line: #64748b;
    --art-panel-tint: #1e293b;
    --accent-1: #fbbf24;
    --accent-2: #fb923c;
    --accent-3: #f87171;
    --accent-4: #a3e635;
    --accent-5: #4ade80;
    --accent-6: #d4a574;
}
:root[data-theme="light"] {
    --background: #f8fafc;
    --panel: #ffffff;
    --primary-text: #0f172a;
    --muted-text: #64748b;
    --inverse-text: #ffffff;
    --border: #e2e8f0;
    --shadow-color: #000000;
    --icon-pad-bg: #1e293b;
    --art-glow: #0891b2;
    --art-glow-opacity: 0.10;
    --art-sheen: #ffffff;
    --art-sheen-opacity: 0.34;
    --art-shadow: #0f172a;
    --art-shadow-opacity: 0.14;
    --art-muted-line: #94a3b8;
    --art-panel-tint: #f1f5f9;
    --accent-1: #d97706;
    --accent-2: #ea580c;
    --accent-3: #dc2626;
    --accent-4: #65a30d;
    --accent-5: #16a34a;
    --accent-6: #92400e;
}</style>
  <rect x="0" y="0" width="1.92E+3" height="1.08E+3" fill="#252a34" stroke="none" id="programmatic_background"/>
  <line id="HEADER_DECOR" x1="960.0" x2="1080.0" y1="135.0" y2="135.0" stroke="var(--accent-1)" stroke-width="6" stroke-linecap="round"/>
  <defs>
    <pattern id="svgda2aa739-napkin-hatch" patternUnits="userSpaceOnUse" width="12" height="12">
      <path d="M -3 12 L 12 -3 M 0 15 L 15 0" fill="none" stroke="var(--primary-text)" stroke-width="1" stroke-opacity="0.05"/>
    </pattern>
    <filter id="svgda2aa739-shadow" x="-30%" y="-30%" width="160%" height="160%">
      <feDropShadow dx="0" dy="2" stdDeviation="3" flood-color="#000000" flood-opacity="0.08"/>
      <feDropShadow dx="0" dy="6" stdDeviation="10" flood-color="#000000" flood-opacity="0.12"/>
    </filter>
    <marker id="svgda2aa739-arrowhead" markerWidth="10" markerHeight="10" refX="9" refY="5" orient="auto">
      <path d="M 0 0 L 10 5 L 0 10 Z" fill="var(--accent-1)"/>
    </marker>
    <filter id="svgda2aa739-text-glow" x="-20%" y="-20%" width="140%" height="140%">
      <feDropShadow dx="0" dy="0" stdDeviation="2" flood-color="#000000" flood-opacity="0.4"/>
    </filter>
    <radialGradient id="svgda2aa739-universal-edge-vignette" cx="50%" cy="50%" r="72%">
      <stop offset="0%" stop-color="var(--background)" stop-opacity="0"/>
      <stop offset="72%" stop-color="var(--background)" stop-opacity="0.12"/>
      <stop offset="100%" stop-color="var(--primary-text)" stop-opacity="0.08"/>
    </radialGradient>
    <linearGradient id="svgda2aa739-universal-surface-sheen" x1="0%" y1="0%" x2="100%" y2="100%">
      <stop offset="0%" stop-color="var(--art-sheen)" stop-opacity="var(--art-sheen-opacity)"/>
      <stop offset="46%" stop-color="var(--art-sheen)" stop-opacity="0.035"/>
      <stop offset="100%" stop-color="var(--art-panel-tint)" stop-opacity="0.14"/>
    </linearGradient>
    <radialGradient id="svgda2aa739-universal-icon-aura" cx="50%" cy="42%" r="64%">
      <stop offset="0%" stop-color="var(--art-glow)" stop-opacity="var(--art-glow-opacity)"/>
      <stop offset="100%" stop-color="var(--background)" stop-opacity="0"/>
    </radialGradient>
    <linearGradient id="svgda2aa739-myth-card-sheen" x1="0%" y1="0%" x2="100%" y2="100%">
      <stop offset="0%" stop-color="var(--inverse-text)" stop-opacity="0.18"/>
      <stop offset="56%" stop-color="var(--inverse-text)" stop-opacity="0.03"/>
      <stop offset="100%" stop-color="var(--background)" stop-opacity="0.12"/>
    </linearGradient>
  </defs>
  <rect width="100%" height="100%" fill="var(--background)" id="CANVAS_BG"/>
  <rect width="100%" height="100%" fill="url(#svgda2aa739-napkin-hatch)"/>
  <rect id="UNIVERSAL_EDGE_VIGNETTE" width="100%" height="100%" fill="url(#svgda2aa739-universal-edge-vignette)" opacity="0.62"/>
  <text id="TITLE" x="960.0" y="59" text-anchor="middle" font-weight="800" font-size="56" fill="#0f172a" style="font-size: 60px; font-family: Inter, Segoe UI, Kalam, Roboto, Helvetica, Arial, sans-serif; font-weight: 700; letter-spacing:-1.2px;" data-final-font-size="60">
    <tspan x="960.0" dy="68.00px">Wewak File Misconceptions</tspan>
  </text>
  <rect id="TITLE_FRAME" x="134" y="59" width="1652" height="103" fill="none"/>
  <g transform="translate(0, 190) scale(1.0)">
    <path d="M 920 -8 C 950 80 950 720 920 808" stroke="var(--primary-text)" stroke-width="2" stroke-opacity="0.10" fill="none"/>
    <path d="M 1000 -8 C 970 80 970 720 1000 808" stroke="var(--primary-text)" stroke-width="2" stroke-opacity="0.10" fill="none"/>
    <text x="480.0" y="0" text-anchor="middle" font-weight="900" font-size="52" fill="var(--accent-1)">MYTHS</text>
    <text x="1440.0" y="0" text-anchor="middle" font-weight="900" font-size="52" fill="var(--accent-2)">REALITY</text>
    <!-- Row 1 - cards at y=130 -->
    <g transform="translate(480.0, 130.0)">
      <rect id="ITEM_1_ACCENT_BG" x="-400" y="-110" width="800" height="245" rx="24" fill="var(--accent-6)" fill-opacity="1.0"/>
      <rect id="ITEM_1_BG" x="-400" y="-110" width="800" height="245" rx="18" fill="var(--panel)" stroke="var(--accent-1)" filter="url(#svgda2aa739-shadow)" stroke-width="3"/>
      <rect x="-388" y="-98" width="776" height="221" rx="16" fill="url(#svgda2aa739-myth-card-sheen)" opacity="0.92"/>
      <circle id="ITEM_1_PAD" cx="-330" cy="-40" r="46" fill="var(--icon-pad-bg)" stroke="var(--background)" stroke-width="2" stroke-opacity="0.65" opacity="0.94" fill-opacity="0.9"/>
      <circle id="ITEM_1_PAD_INNER" cx="-330" cy="-40" r="35.88" fill="var(--accent-6)" fill-opacity="0.22"/>
      <circle cx="-330" cy="-40" r="34" fill="none" stroke="var(--accent-1)" stroke-width="3" stroke-dasharray="6 4"/>
      <g id="ITEM_1_ICON" transform="translate(-358, -68)" data-icon-size="56" stroke-dasharray="6 4">
        <g transform="translate(-7.880000000000003,-7.880000000000003) scale(5.125714285714286)" vector-effect="non-scaling-stroke" stroke-width="2.38" stroke-linecap="round" stroke-linejoin="round" stroke-opacity="1.0">
          <path id="Vector" fill="none" d="M6 11.5a5.5 5.5 0 1 0 0 -11 5.5 5.5 0 0 0 0 11Z" vector-effect="non-scaling-stroke" stroke="#f1f5f9"/>
          <path id="Vector_2" stroke="#f1f5f9" d="M6 11.5a5.5 5.5 0 1 0 0 -11 5.5 5.5 0 0 0 0 11Z" vector-effect="non-scaling-stroke" fill="none"/>
          <path id="Vector_3" stroke="#f1f5f9" d="M13.5 13.5 10 10" vector-effect="non-scaling-stroke" fill="none"/>
        </g>
      </g>
      <text id="ITEM_1_HEAD" x="0.0" y="-85.0" text-anchor="middle" font-weight="bold" font-size="28" fill="var(--accent-6)" data-bg-id="ITEM_1_BG" fill-opacity="1.0" style="font-size: 30px; font-family: Inter, Segoe UI, Kalam, Roboto, Helvetica, Arial, sans-serif; font-weight: 700; letter-spacing:-0.4px;" data-final-font-size="30">
        <tspan x="0.0" dy="37.75px">Extraordinary Conclusion</tspan>
      </text>
      <rect id="ITEM_1_HEAD_FRAME" x="-310" y="-85" width="620" height="50" fill="none"/>
      <text id="ITEM_1_BODY" x="0.0" y="-20.0" text-anchor="middle" font-size="22" fill="var(--primary-text)" opacity="0.88" data-bg-id="ITEM_1_BG" style="font-size: 26px; font-family: Inter, Segoe UI, Kalam, Roboto, Helvetica, Arial, sans-serif; font-weight: 400;" data-final-font-size="26">
        <tspan x="0.0" dy="45.42px">Officials avoided rushing toward alien</tspan>
        <tspan x="0.0" dy="29.90px">theories immediately</tspan>
      </text>
      <rect id="ITEM_1_BODY_FRAME" x="-310" y="-20" width="620" height="155" fill="none"/>
    </g>
    <g transform="translate(1440.0, 130.0)">
      <rect id="ITEM_2_ACCENT_BG" x="-400" y="-110" width="800" height="245" rx="24" fill="var(--accent-2)" fill-opacity="1.0"/>
      <rect id="ITEM_2_BG" x="-400" y="-110" width="800" height="245" rx="18" fill="var(--panel)" stroke="var(--accent-2)" filter="url(#svgda2aa739-shadow)" stroke-width="3"/>
      <rect x="-388" y="-98" width="776" height="221" rx="16" fill="url(#svgda2aa739-myth-card-sheen)" opacity="0.92"/>
      <circle id="ITEM_2_PAD" cx="330" cy="-40" r="46" fill="var(--icon-pad-bg)" stroke="var(--background)" stroke-width="2" stroke-opacity="0.65" opacity="0.94" fill-opacity="0.9"/>
      <circle id="ITEM_2_PAD_INNER" cx="330" cy="-40" r="35.88" fill="var(--accent-2)" fill-opacity="0.22"/>
      <circle cx="330" cy="-40" r="34" fill="none" stroke="var(--accent-2)" stroke-width="3" stroke-dasharray="6 4"/>
      <g id="ITEM_2_ICON" transform="translate(302, -68)" data-icon-size="56" stroke-dasharray="6 4">
        <g transform="translate(-11.936,-12.872000000000003) scale(0.156)" vector-effect="non-scaling-stroke" fill="#f1f5f9" fill-opacity="1.0" stroke="none">
          <path fill="#f1f5f9" d="m256 32l-96 48h23v71h-32v50h30.945L155.36 440.244l-.653.477l.522.72l-4.175 37.566l-.994 8.945l17.89 1.99l.995-8.946L171.61 457h168.78l2.665 23.994l.994 8.945l17.89-1.99l-.995-8.944l-4.174-37.567l.523-.72l-.654-.476L330.054 201H361v-50h-32V80h23zm-48 64h32v48h-32zm64 0h32v48h-32zm-103 73h14v14h-14zm32 0h14v14h-14zm32 0h14v14h-14zm32 0h14v14h-14zm32 0h14v14h-14zm32 0h14v14h-14zm-113.328 32h80.656L256 236.848zm-16.65 9.283L240.33 247h-45.385l4.08-36.717zm113.955 0l4.08 36.717h-45.385zM192.945 265h31.383l-34.822 30.953l3.44-30.953zm58.477 0h9.156l51.75 46H199.672zm36.25 0h31.383l3.44 30.953L287.67 265zm-83.994 64h104.644L256 367.053zm-18.8 8.586L236.323 375h-55.6l4.157-37.414zm142.243 0L331.278 375h-55.6l51.444-37.414zM178.724 393h41.6l-45.26 32.914zm72.205 0h10.144l63.25 46H187.678l63.25-46zm40.75 0h41.6l3.658 32.914z" vector-effect="non-scaling-stroke" stroke="none"/>
        </g>
      </g>
      <text id="ITEM_2_HEAD" x="0.0" y="-85.0" text-anchor="middle" font-weight="bold" font-size="28" fill="var(--primary-text)" data-bg-id="ITEM_2_BG" fill-opacity="1.0" style="font-size: 30px; font-family: Inter, Segoe UI, Kalam, Roboto, Helvetica, Arial, sans-serif; font-weight: 700; letter-spacing:-0.4px;" data-final-font-size="30">
        <tspan x="0.0" dy="37.75px">UFO Focus</tspan>
      </text>
      <rect id="ITEM_2_HEAD_FRAME" x="-310" y="-85" width="620" height="50" fill="none"/>
      <text id="ITEM_2_BODY" x="0.0" y="-20.0" text-anchor="middle" font-size="22" fill="var(--primary-text)" opacity="0.88" data-bg-id="ITEM_2_BG" style="font-size: 26px; font-family: Inter, Segoe UI, Kalam, Roboto, Helvetica, Arial, sans-serif; font-weight: 400;" data-final-font-size="26">
        <tspan x="0.0" dy="45.42px">Primary concern was range security rather</tspan>
        <tspan x="0.0" dy="29.90px">than sightings</tspan>
      </text>
      <rect id="ITEM_2_BODY_FRAME" x="-310" y="-20" width="620" height="155" fill="none"/>
    </g>
    <!-- Row 2 - cards at y=400 -->
    <g transform="translate(480.0, 400.0)">
      <rect id="ITEM_3_ACCENT_BG" x="-400" y="-110" width="800" height="245" rx="24" fill="var(--accent-3)" fill-opacity="0.15"/>
      <rect id="ITEM_3_BG" x="-400" y="-110" width="800" height="245" rx="18" fill="var(--panel)" stroke="var(--accent-3)" filter="url(#svgda2aa739-shadow)" stroke-width="3"/>
      <rect x="-388" y="-98" width="776" height="221" rx="16" fill="url(#svgda2aa739-myth-card-sheen)" opacity="0.92"/>
      <circle id="ITEM_3_PAD" cx="-330" cy="-40" r="46" fill="var(--icon-pad-bg)" stroke="var(--background)" stroke-width="2" stroke-opacity="0.65" opacity="0.94"/>
      <circle id="ITEM_3_PAD_INNER" cx="-330" cy="-40" r="35.88" fill="var(--accent-3)" fill-opacity="0.22"/>
      <circle cx="-330" cy="-40" r="34" fill="none" stroke="var(--accent-3)" stroke-width="3" stroke-dasharray="6 4"/>
      <g id="ITEM_3_ICON" transform="translate(-358, -68)" data-icon-size="56" stroke-dasharray="6 4">
        <g transform="translate(-9.973000000000004,-10.272000000000002) scale(0.14950000000000002)" vector-effect="non-scaling-stroke" fill="#f1f5f9" fill-opacity="1.0" stroke="none">
          <path fill="#f1f5f9" d="M254.28 17.313c-81.048 0-146.624 65.484-146.624 146.406V236h49.594v-69.094c0-53.658 43.47-97.187 97.03-97.187c53.563 0 97.032 44.744 97.032 97.186V236h49.594v-72.28c0-78.856-65.717-146.407-146.625-146.407zM85.157 254.688c-14.61 22.827-22.844 49.148-22.844 76.78c0 88.358 84.97 161.5 191.97 161.5c106.998 0 191.968-73.142 191.968-161.5c0-27.635-8.26-53.95-22.875-76.78H85.155zM254 278.625c22.34 0 40.875 17.94 40.875 40.28c0 16.756-10.6 31.23-25.125 37.376l32.72 98.126h-96.376l32.125-98.125c-14.526-6.145-24.532-20.62-24.532-37.374c0-22.338 17.972-40.28 40.312-40.28z" vector-effect="non-scaling-stroke" stroke="none"/>
        </g>
      </g>
      <text id="ITEM_3_HEAD" x="0.0" y="-85.0" text-anchor="middle" font-weight="bold" font-size="28" fill="var(--accent-3)" data-bg-id="ITEM_3_BG" style="font-size: 30px; font-family: Inter, Segoe UI, Kalam, Roboto, Helvetica, Arial, sans-serif; font-weight: 700; letter-spacing:-0.4px;" data-final-font-size="30">
        <tspan x="0.0" dy="37.75px">Confidentiality Reason</tspan>
      </text>
      <rect id="ITEM_3_HEAD_FRAME" x="-310" y="-85" width="620" height="50" fill="none"/>
      <text id="ITEM_3_BODY" x="0.0" y="-20.0" text-anchor="middle" font-size="22" fill="var(--primary-text)" opacity="0.88" data-bg-id="ITEM_3_BG" style="font-size: 26px; font-family: Inter, Segoe UI, Kalam, Roboto, Helvetica, Arial, sans-serif; font-weight: 400;" data-final-font-size="26">
        <tspan x="0.0" dy="51.40px">Secrecy applied to location rather than the object</tspan>
      </text>
      <rect id="ITEM_3_BODY_FRAME" x="-310" y="-20" width="620" height="155" fill="none"/>
    </g>
    <g transform="translate(1440.0, 400.0)">
      <rect id="ITEM_4_ACCENT_BG" x="-400" y="-110" width="800" height="245" rx="24" fill="var(--accent-4)" fill-opacity="0.15"/>
      <rect id="ITEM_4_BG" x="-400" y="-110" width="800" height="245" rx="18" fill="var(--panel)" stroke="var(--accent-4)" filter="url(#svgda2aa739-shadow)" stroke-width="3"/>
      <rect x="-388" y="-98" width="776" height="221" rx="16" fill="url(#svgda2aa739-myth-card-sheen)" opacity="0.92"/>
      <circle id="ITEM_4_PAD" cx="330" cy="-40" r="46" fill="var(--icon-pad-bg)" stroke="var(--background)" stroke-width="2" stroke-opacity="0.65" opacity="0.94"/>
      <circle id="ITEM_4_PAD_INNER" cx="330" cy="-40" r="35.88" fill="var(--accent-4)" fill-opacity="0.22"/>
      <circle cx="330" cy="-40" r="34" fill="none" stroke="var(--accent-4)" stroke-width="3" stroke-dasharray="6 4"/>
      <g id="ITEM_4_ICON" transform="translate(302, -68)" data-icon-size="56" stroke-dasharray="6 4">
        <g transform="translate(-10.571000000000005,-10.272000000000002) scale(0.14950000000000002)" vector-effect="non-scaling-stroke" fill="#f1f5f9" fill-opacity="1.0" stroke="none">
          <path fill="#f1f5f9" d="M257.78 19.438c-127.92.016-231.75 103.855-231.75 231.78c0 55.734 19.71 106.776 52.532 146.72L57.75 434.094h132.406l-66.312-114.72l-22.375 39c-20.9-30.478-33.064-67.442-33.064-107.155c0-104.523 84.854-189.376 189.375-189.376c104.523 0 189.408 84.853 189.408 189.375c0 39.108-11.68 75.664-32 105.874l-21.875-37.72L327 434.095h132.406l-21.594-37.47c32.225-39.78 51.75-90.253 51.75-145.405c0-127.927-103.827-231.766-231.75-231.782h-.03zm-.655 75.468c-49.528-.047-110.474 29.232-128.406 104.938l60.75 14.312c26.965-76.242 90.87-70.824 113.31-28.625c26.775 50.346-89.687 107.283-84.124 190.407h77.688c6.49-98.144 118.973-123.49 59.562-229.53C337.963 114.38 301 96.572 261.876 95.03V95a125 125 0 0 0-4.75-.094zM258.5 395.97a48.45 48.45 0 0 0-48.594 48.592a48.45 48.45 0 0 0 48.594 48.594a48.45 48.45 0 0 0 48.594-48.594a48.45 48.45 0 0 0-48.594-48.593z" vector-effect="non-scaling-stroke" stroke="none"/>
        </g>
      </g>
      <text id="ITEM_4_HEAD" x="0.0" y="-85.0" text-anchor="middle" font-weight="bold" font-size="28" fill="var(--primary-text)" data-bg-id="ITEM_4_BG" style="font-size: 30px; font-family: Inter, Segoe UI, Kalam, Roboto, Helvetica, Arial, sans-serif; font-weight: 700; letter-spacing:-0.4px;" data-final-font-size="30">
        <tspan x="0.0" dy="37.75px">Definitive Answers</tspan>
      </text>
      <rect id="ITEM_4_HEAD_FRAME" x="-310" y="-85" width="620" height="50" fill="none"/>
      <text id="ITEM_4_BODY" x="0.0" y="-20.0" text-anchor="middle" font-size="22" fill="var(--primary-text)" opacity="0.88" data-bg-id="ITEM_4_BG" style="font-size: 26px; font-family: Inter, Segoe UI, Kalam, Roboto, Helvetica, Arial, sans-serif; font-weight: 400;" data-final-font-size="26">
        <tspan x="0.0" dy="45.42px">Investigators recorded uncertainties instead</tspan>
        <tspan x="0.0" dy="29.90px">of forced conclusions</tspan>
      </text>
      <rect id="ITEM_4_BODY_FRAME" x="-310" y="-20" width="620" height="155" fill="none"/>
    </g>
    <!-- Row 3 - cards at y=670 -->
    <g transform="translate(480.0, 670.0)">
      <rect id="ITEM_5_ACCENT_BG" x="-400" y="-110" width="800" height="245" rx="24" fill="var(--accent-5)" fill-opacity="0.15"/>
      <rect id="ITEM_5_BG" x="-400" y="-110" width="800" height="245" rx="18" fill="var(--panel)" stroke="var(--accent-5)" filter="url(#svgda2aa739-shadow)" stroke-width="3"/>
      <rect x="-388" y="-98" width="776" height="221" rx="16" fill="url(#svgda2aa739-myth-card-sheen)" opacity="0.92"/>
      <circle id="ITEM_5_PAD" cx="-330" cy="-40" r="46" fill="var(--icon-pad-bg)" stroke="var(--background)" stroke-width="2" stroke-opacity="0.65" opacity="0.94"/>
      <circle id="ITEM_5_PAD_INNER" cx="-330" cy="-40" r="35.88" fill="var(--accent-5)" fill-opacity="0.22"/>
      <circle cx="-330" cy="-40" r="34" fill="none" stroke="var(--accent-5)" stroke-width="3" stroke-dasharray="6 4"/>
      <g id="ITEM_5_ICON" transform="translate(-358, -68)" data-icon-size="56" stroke-dasharray="6 4">
        <g transform="translate(-13.326071428571435,-13.005714285714289) scale(2.562857142857143)">
          <path d="M18.015 6L16.015 5L14.015 6V9H18.015V6ZM10.645 11.19L8.195 13.64C7.695 14.14 6.895 14.14 6.405 13.64L5.375 12.61C4.875 12.11 4.875 11.31 5.375 10.82L7.825 8.37C8.325 7.87 9.125 7.87 9.615 8.37L10.655 9.41C11.145 9.89 11.145 10.7 10.645 11.19ZM23.825 13.64L21.375 11.19C20.875 10.7 20.875 9.88999 21.375 9.39999L22.415 8.35999C22.905 7.85999 23.705 7.85999 24.205 8.35999L26.655 10.81C27.155 11.3 27.155 12.1 26.655 12.6L25.615 13.64C25.125 14.14 24.325 14.14 23.825 13.64Z" fill="#D3D3D3"/>
          <path d="M13.275 6H18.745C19.445 6 20.015 5.43 20.005 4.73V3.27C20.005 2.57 19.435 2 18.735 2H13.275C12.575 2 12.015 2.57 12.005 3.27V4.73C12.005 5.43 12.575 6 13.275 6ZM27.015 19C27.015 25.0751 22.0901 30 16.015 30C9.93988 30 5.01501 25.0751 5.01501 19C5.01501 12.9249 9.93988 8 16.015 8C22.0901 8 27.015 12.9249 27.015 19Z" fill="#636363"/>
          <path d="M16.015 28C20.9856 28 25.015 23.9706 25.015 19C25.015 14.0294 20.9856 10 16.015 10C11.0445 10 7.01501 14.0294 7.01501 19C7.01501 23.9706 11.0445 28 16.015 28Z" fill="white"/>
          <path d="M19.545 14.0499L20.255 13.3399C20.645 12.9499 21.275 12.9499 21.665 13.3399C22.055 13.7299 22.055 14.3599 21.665 14.7499L20.955 15.4599C20.565 15.8499 19.935 15.8499 19.545 15.4599C19.155 15.0799 19.155 14.4399 19.545 14.0499Z" fill="#9B9B9B"/>
          <path d="M15.015 13V12C15.015 11.45 15.465 11 16.015 11C16.565 11 17.015 11.45 17.015 12V13C17.015 13.55 16.565 14 16.015 14C15.455 14 15.015 13.55 15.015 13ZM15.015 26V25C15.015 24.45 15.465 24 16.015 24C16.565 24 17.015 24.45 17.015 25V26C17.015 26.55 16.565 27 16.015 27C15.455 27 15.015 26.55 15.015 26ZM23.015 18H22.015C21.455 18 21.015 18.45 21.015 19C21.015 19.55 21.465 20 22.015 20H23.015C23.565 20 24.015 19.55 24.015 19C24.015 18.45 23.565 18 23.015 18ZM9.01501 18H10.015C10.565 18 11.015 18.45 11.015 19C11.015 19.55 10.565 20 10.015 20H9.01501C8.46501 20 8.01501 19.55 8.01501 19C8.01501 18.45 8.45501 18 9.01501 18ZM21.675 23.2501L20.965 22.5401C20.565 22.1501 19.935 22.1501 19.555 22.5401C19.165 22.9301 19.165 23.5601 19.555 23.9501L20.265 24.6601C20.655 25.0501 21.285 25.0501 21.675 24.6601C22.065 24.2701 22.065 23.6401 21.675 23.2501ZM11.765 13.35L12.475 14.06C12.865 14.45 12.865 15.08 12.475 15.47C12.085 15.86 11.455 15.86 11.065 15.47L10.355 14.76C9.965 14.37 9.965 13.74 10.355 13.35C10.745 12.95 11.375 12.95 11.765 13.35ZM11.065 22.53L10.355 23.24C9.965 23.64 9.965 24.27 10.355 24.65C10.745 25.04 11.375 25.04 11.765 24.65L12.475 23.94C12.865 23.55 12.865 22.92 12.475 22.53C12.085 22.14 11.455 22.14 11.065 22.53Z" fill="#D3D3D3"/>
          <path d="M15.305 19.7101C14.915 19.3201 14.915 18.6901 15.305 18.3001L20.255 13.3501C20.645 12.9601 21.275 12.9601 21.665 13.3501C22.055 13.7401 22.055 14.3701 21.665 14.7601L16.715 19.7101C16.325 20.1001 15.695 20.1001 15.305 19.7101Z" fill="#F8312F"/>
        </g>
      </g>
      <text id="ITEM_5_HEAD" x="0.0" y="-85.0" text-anchor="middle" font-weight="bold" font-size="28" fill="var(--primary-text)" data-bg-id="ITEM_5_BG" style="font-size: 30px; font-family: Inter, Segoe UI, Kalam, Roboto, Helvetica, Arial, sans-serif; font-weight: 700; letter-spacing:-0.4px;" data-final-font-size="30">
        <tspan x="0.0" dy="37.75px">Minor Incident</tspan>
      </text>
      <rect id="ITEM_5_HEAD_FRAME" x="-310" y="-85" width="620" height="50" fill="none"/>
      <text id="ITEM_5_BODY" x="0.0" y="-20.0" text-anchor="middle" font-size="22" fill="var(--primary-text)" opacity="0.88" data-bg-id="ITEM_5_BG" style="font-size: 26px; font-family: Inter, Segoe UI, Kalam, Roboto, Helvetica, Arial, sans-serif; font-weight: 400;" data-final-font-size="26">
        <tspan x="0.0" dy="45.42px">Brief thirty-second observation triggered extensive</tspan>
        <tspan x="0.0" dy="29.90px">official scrutiny</tspan>
      </text>
      <rect id="ITEM_5_BODY_FRAME" x="-310" y="-20" width="620" height="155" fill="none"/>
    </g>
  </g>
</svg>
