<?xml version='1.0' encoding='utf-8'?>
<svg xmlns="http://www.w3.org/2000/svg" width="1920" height="1080" viewBox="0 0 1920 1080" data-theme="dark">
  <style>
        @font-face {
            font-family: 'Inter';
            src: url('assets/fonts/Inter-Regular.ttf') format('truetype');
            font-weight: 400;
            font-style: normal;
            font-display: swap;
        }
        @font-face {
            font-family: 'Inter';
            src: url('assets/fonts/Inter-Bold.ttf') format('truetype');
            font-weight: 600;
            font-style: normal;
            font-display: swap;
        }
        @font-face {
            font-family: 'Inter';
            src: url('assets/fonts/Inter-Bold.ttf') format('truetype');
            font-weight: 800;
            font-style: normal;
            font-display: swap;
        }
        
:root {
    --background: #0f172a;
    --panel: #1e293b;
    --primary-text: #f1f5f9;
    --muted-text: #94a3b8;
    --inverse-text: #0f172a;
    --border: #334155;
    --shadow-color: #000000;
    --icon-pad-bg: #1e293b;
    --art-glow: #7dd3fc;
    --art-glow-opacity: 0.18;
    --art-sheen: #ffffff;
    --art-sheen-opacity: 0.18;
    --art-shadow: #000000;
    --art-shadow-opacity: 0.28;
    --art-muted-line: #64748b;
    --art-panel-tint: #1e293b;
    --font-family: 'Inter', 'Segoe UI', 'Kalam', Roboto, Helvetica, Arial, sans-serif;
    --radius-xl: 16px;
    --font-family-headline: 'Inter', 'Segoe UI', 'Kalam', Roboto, Helvetica, Arial, sans-serif;
    --font-family-body: 'Inter', 'Segoe UI', 'Kalam', Roboto, Helvetica, Arial, sans-serif;
    --font-heading: 'Inter', 'Segoe UI', 'Kalam', Roboto, Helvetica, Arial, sans-serif;
    --font-body: 'Inter', 'Segoe UI', 'Kalam', Roboto, Helvetica, Arial, sans-serif;
    --font-size-h1: 56px;
    --font-size-h2: 40px;
    --font-size-h3: 28px;
    --font-size-body: 24px;
    --font-size-caption: 18px;
    --secondary-text: var(--muted-text);
    --panel-border: var(--border);
    --font-weight-normal: 400;
    --font-weight-medium: 500;
    --font-weight-semibold: 600;
    --font-weight-bold: 700;
    --spacing-gutter-pct: 0.07;
    --spacing-top-pct: 0.15;
    --spacing-bottom-pct: 0.07;
    --spacing-title-y-pct: 0.055;
    --accent-1: #22d3ee;
    --accent-2: #f472b6;
    --accent-3: #facc15;
    --accent-4: #a3e635;
    --accent-5: #fb923c;
    --accent-6: #c084fc;
}
:root[data-theme="dark"] {
    --background: #0f172a;
    --panel: #1e293b;
    --primary-text: #f1f5f9;
    --muted-text: #94a3b8;
    --inverse-text: #0f172a;
    --border: #334155;
    --shadow-color: #000000;
    --icon-pad-bg: #1e293b;
    --art-glow: #7dd3fc;
    --art-glow-opacity: 0.18;
    --art-sheen: #ffffff;
    --art-sheen-opacity: 0.18;
    --art-shadow: #000000;
    --art-shadow-opacity: 0.28;
    --art-muted-line: #64748b;
    --art-panel-tint: #1e293b;
    --accent-1: #22d3ee;
    --accent-2: #f472b6;
    --accent-3: #facc15;
    --accent-4: #a3e635;
    --accent-5: #fb923c;
    --accent-6: #c084fc;
}
:root[data-theme="light"] {
    --background: #f8fafc;
    --panel: #ffffff;
    --primary-text: #0f172a;
    --muted-text: #64748b;
    --inverse-text: #ffffff;
    --border: #e2e8f0;
    --shadow-color: #000000;
    --icon-pad-bg: #1e293b;
    --art-glow: #0891b2;
    --art-glow-opacity: 0.10;
    --art-sheen: #ffffff;
    --art-sheen-opacity: 0.34;
    --art-shadow: #0f172a;
    --art-shadow-opacity: 0.14;
    --art-muted-line: #94a3b8;
    --art-panel-tint: #f1f5f9;
    --accent-1: #0891b2;
    --accent-2: #db2777;
    --accent-3: #ca8a04;
    --accent-4: #65a30d;
    --accent-5: #ea580c;
    --accent-6: #9333ea;
}</style>
  <rect x="0" y="0" width="1.92E+3" height="1.08E+3" fill="#252a34" stroke="none" id="programmatic_background"/>
  <line id="HEADER_DECOR" x1="960.0" x2="1080.0" y1="135.0" y2="135.0" stroke="var(--accent-1)" stroke-width="6" stroke-linecap="round"/>
  <defs>
    <pattern id="svg9132fca5-napkin-hatch" patternUnits="userSpaceOnUse" width="12" height="12">
      <path d="M -3 12 L 12 -3 M 0 15 L 15 0" fill="none" stroke="var(--primary-text)" stroke-width="1" stroke-opacity="0.05"/>
    </pattern>
    <filter id="svg9132fca5-shadow" x="-30%" y="-30%" width="160%" height="160%">
      <feDropShadow dx="0" dy="2" stdDeviation="3" flood-color="#000000" flood-opacity="0.08"/>
      <feDropShadow dx="0" dy="6" stdDeviation="10" flood-color="#000000" flood-opacity="0.12"/>
    </filter>
    <radialGradient id="svg9132fca5-universal-edge-vignette" cx="50%" cy="50%" r="72%">
      <stop offset="0%" stop-color="var(--background)" stop-opacity="0"/>
      <stop offset="72%" stop-color="var(--background)" stop-opacity="0.12"/>
      <stop offset="100%" stop-color="var(--primary-text)" stop-opacity="0.08"/>
    </radialGradient>
    <linearGradient id="svg9132fca5-universal-surface-sheen" x1="0%" y1="0%" x2="100%" y2="100%">
      <stop offset="0%" stop-color="var(--art-sheen)" stop-opacity="var(--art-sheen-opacity)"/>
      <stop offset="46%" stop-color="var(--art-sheen)" stop-opacity="0.035"/>
      <stop offset="100%" stop-color="var(--art-panel-tint)" stop-opacity="0.14"/>
    </linearGradient>
    <radialGradient id="svg9132fca5-universal-icon-aura" cx="50%" cy="42%" r="64%">
      <stop offset="0%" stop-color="var(--art-glow)" stop-opacity="var(--art-glow-opacity)"/>
      <stop offset="100%" stop-color="var(--background)" stop-opacity="0"/>
    </radialGradient>
    <filter id="svg9132fca5-text-glow" x="-20%" y="-20%" width="140%" height="140%">
      <feDropShadow dx="0" dy="0" stdDeviation="2" flood-color="#000000" flood-opacity="0.4"/>
    </filter>
    <marker id="svg9132fca5-arrowhead" markerWidth="10" markerHeight="7" refX="9" refY="3.5" orient="auto" markerUnits="strokeWidth">
      <polygon points="0 0, 10 3.5, 0 7" fill="var(--muted-text)" opacity="0.6"/>
    </marker>
  </defs>
  <rect width="100%" height="100%" fill="var(--background)" id="CANVAS_BG"/>
  <rect width="100%" height="100%" fill="url(#svg9132fca5-napkin-hatch)"/>
  <rect id="UNIVERSAL_EDGE_VIGNETTE" width="100%" height="100%" fill="url(#svg9132fca5-universal-edge-vignette)" opacity="0.62"/>
  <text id="TITLE" x="960.0" y="59" text-anchor="middle" font-size="63" font-weight="700" fill="#f1f5f9" style="font-size: 60px; font-family: Inter, Segoe UI, Kalam, Roboto, Helvetica, Arial, sans-serif; font-weight: 700; letter-spacing:-1.2px;" data-final-font-size="60">
    <tspan x="960.0" dy="68.00px">Evolution of the Westall UFO Archive</tspan>
  </text>
  <rect id="TITLE_FRAME" x="134" y="59" width="1652" height="103" fill="none"/>
  <g id="DIAGRAM_SCALER">
    <line x1="960" y1="200" x2="960" y2="960" stroke="var(--accent-1)" stroke-width="34" stroke-linecap="round" opacity="0.055"/>
    <line x1="960" y1="200" x2="960" y2="960" stroke="var(--accent-1)" stroke-width="34" stroke-linecap="round" opacity="0.055"/>
    <line x1="960" y1="200" x2="960" y2="960" stroke="var(--accent-1)" stroke-width="34" stroke-linecap="round" opacity="0.055"/>
    <line x1="960" y1="200" x2="960" y2="960" stroke="var(--accent-1)" stroke-width="34" stroke-linecap="round" opacity="0.055"/>
    <line x1="960" y1="200" x2="960" y2="960" stroke="var(--accent-1)" stroke-width="34" stroke-linecap="round" opacity="0.055"/>
    <line x1="960" y1="200" x2="960" y2="960" stroke="var(--accent-1)" stroke-width="34" stroke-linecap="round" opacity="0.055"/>
    <line x1="960" y1="200" x2="960" y2="960" stroke="var(--accent-1)" stroke-width="34" stroke-linecap="round" opacity="0.055"/>
    <line x1="960" y1="200" x2="960" y2="960" stroke="var(--accent-1)" stroke-width="34" stroke-linecap="round" opacity="0.055"/>
    <line x1="960" y1="200" x2="960" y2="960" stroke="var(--accent-1)" stroke-width="34" stroke-linecap="round" opacity="0.055"/>
    <line x1="960" y1="200" x2="960" y2="960" stroke="var(--accent-1)" stroke-width="34" stroke-linecap="round" opacity="0.055"/>
    <line x1="960" y1="200" x2="960" y2="960" stroke="var(--accent-1)" stroke-width="34" stroke-linecap="round" opacity="0.055"/>
    <line x1="960" y1="200" x2="960" y2="960" stroke="var(--accent-1)" stroke-width="34" stroke-linecap="round" opacity="0.055"/>
    <line x1="960" y1="200" x2="960" y2="960" stroke="var(--accent-1)" stroke-width="34" stroke-linecap="round" opacity="0.055"/>
    <line x1="960" y1="200" x2="960" y2="960" stroke="var(--accent-1)" stroke-width="34" stroke-linecap="round" opacity="0.055"/>
    <line x1="960" y1="200" x2="960" y2="960" stroke="var(--accent-1)" stroke-width="34" stroke-linecap="round" opacity="0.055"/>
    <line x1="960" y1="200" x2="960" y2="960" stroke="var(--accent-1)" stroke-width="34" stroke-linecap="round" opacity="0.055"/>
    <line x1="960" y1="200" x2="960" y2="960" stroke="var(--accent-1)" stroke-width="34" stroke-linecap="round" opacity="0.055"/>
    <line x1="960" y1="200" x2="960" y2="960" stroke="var(--accent-1)" stroke-width="34" stroke-linecap="round" opacity="0.055"/>
    <line x1="960" y1="200" x2="960" y2="960" stroke="var(--accent-1)" stroke-width="34" stroke-linecap="round" opacity="0.055"/>
    <line x1="960" y1="200" x2="960" y2="960" stroke="var(--accent-1)" stroke-width="34" stroke-linecap="round" opacity="0.055"/>
    <line x1="960" y1="200" x2="960" y2="960" stroke="var(--accent-1)" stroke-width="34" stroke-linecap="round" opacity="0.055"/>
    <line x1="960" y1="200" x2="960" y2="960" stroke="var(--accent-1)" stroke-width="34" stroke-linecap="round" opacity="0.055"/>
    <line x1="960" y1="200" x2="960" y2="960" stroke="var(--accent-1)" stroke-width="34" stroke-linecap="round" opacity="0.055"/>
    <line x1="960" y1="200" x2="960" y2="960" stroke="var(--accent-1)" stroke-width="34" stroke-linecap="round" opacity="0.055"/>
    <line x1="960" y1="200" x2="960" y2="960" stroke="var(--accent-1)" stroke-width="34" stroke-linecap="round" opacity="0.055"/>
    <line x1="960" y1="200" x2="960" y2="960" stroke="var(--accent-1)" stroke-width="34" stroke-linecap="round" opacity="0.055"/>
    <line x1="960" y1="200" x2="960" y2="960" stroke="var(--accent-1)" stroke-width="34" stroke-linecap="round" opacity="0.055"/>
    <line x1="960" y1="200" x2="960" y2="960" stroke="var(--accent-1)" stroke-width="34" stroke-linecap="round" opacity="0.055"/>
    <line x1="960" y1="200" x2="960" y2="960" stroke="var(--accent-1)" stroke-width="34" stroke-linecap="round" opacity="0.055"/>
    <line x1="960" y1="200" x2="960" y2="960" stroke="var(--border)" stroke-width="20" stroke-linecap="round" opacity="0.1"/>
    <line x1="960" y1="200" x2="960" y2="960" stroke="var(--muted-text)" stroke-width="7" stroke-linecap="round" opacity="0.48"/>
    <circle cx="960" cy="200" r="10" fill="var(--border)" opacity="0.35"/>
    <path d="M 960 992 L 980 960 L 940 960 Z" fill="var(--muted-text)" opacity="0.5"/>
    <g transform="translate(960, 240)">
      <circle cx="0" cy="0" r="18" fill="var(--panel)" stroke="var(--border)" stroke-width="4"/>
      <circle cx="0" cy="0" r="7" fill="var(--accent-1)"/>
      <line x1="0" y1="0" x2="220" y2="0" stroke="var(--accent-1)" stroke-width="16" stroke-linecap="round" opacity="0.18"/>
      <line x1="0" y1="0" x2="220" y2="0" stroke="var(--accent-1)" stroke-width="4" stroke-linecap="round"/>
      <circle cx="220" cy="0" r="60" fill="var(--accent-1)" opacity="0.14"/>
      <circle id="ITEM_1_NODE" cx="220" cy="0" r="48" fill="var(--panel)" stroke="var(--accent-1)" stroke-width="3"/>
      <circle id="ITEM_1_PAD" cx="220" cy="0" r="42" fill="var(--icon-pad-bg)" stroke="var(--primary-text)" opacity="0.94" fill-opacity="0.9" stroke-width="2"/>
      <circle id="ITEM_1_PAD_INNER" cx="220" cy="0" r="32.76" fill="var(--accent-1)" fill-opacity="0.22"/>
      <circle cx="220" cy="0" r="32" fill="none" stroke="var(--accent-1)" stroke-width="3" stroke-dasharray="6 4"/>
      <g id="ITEM_1_ICON" transform="translate(190, -30)" data-icon-size="60" stroke-dasharray="6 4">
        <g transform="translate(-7.108672566371679,-7.398584070796458) scale(2.31929203539823)">
          <path d="M30 16.01H2L3.71999 11.7C3.88999 11.27 4.29999 10.99 4.75999 10.99H27.24C27.7 10.99 28.11 11.27 28.28 11.7L30 16.01Z" fill="#8C5543"/>
          <path d="M17.51 3.32996H20.2C20.36 3.32996 20.49 3.45996 20.49 3.61996V5.03996C20.49 5.19996 20.36 5.32996 20.2 5.32996H18.12C17.79 5.32996 17.52 5.05996 17.52 4.72996V3.32996H17.51Z" fill="#C3EF3C"/>
          <path d="M19.1 4.32996H16V2.32996H19.1C19.32 2.32996 19.5 2.50996 19.5 2.72996V3.91996C19.51 4.14996 19.33 4.32996 19.1 4.32996Z" fill="#00F397"/>
          <path opacity="0.7" d="M2 16H9V30H2V16ZM30 16H23V30H30V16Z" fill="#FFDEA7"/>
          <path d="M22.72 13.96L16.57 7.89998C16.26 7.58998 15.76 7.58998 15.45 7.89998L9.30001 13.96C9.12001 14.14 9.01001 14.39 9.01001 14.64V15.84V16.22V30.01H12.9773L15.9912 28.8035L19.0051 30.01H23.01V16.21V15.83V14.63C23 14.38 22.9 14.14 22.72 13.96Z" fill="#FFCE7C"/>
          <path d="M4.71999 21H3.28C3.13 21 3 20.87 3 20.72V18.28C3 18.13 3.13 18 3.28 18H4.71999C4.86999 18 5 18.13 5 18.28V20.72C5 20.88 4.87999 21 4.71999 21ZM8 20.72V18.28C8 18.13 7.86999 18 7.71999 18H6.28C6.13 18 6 18.13 6 18.28V20.72C6 20.87 6.13 21 6.28 21H7.71999C7.87999 21 8 20.88 8 20.72ZM5 24.72V22.28C5 22.13 4.86999 22 4.71999 22H3.28C3.13 22 3 22.13 3 22.28V24.72C3 24.87 3.13 25 3.28 25H4.71999C4.87999 25 5 24.88 5 24.72ZM8 24.72V22.28C8 22.13 7.86999 22 7.71999 22H6.28C6.13 22 6 22.13 6 22.28V24.72C6 24.87 6.13 25 6.28 25H7.71999C7.87999 25 8 24.88 8 24.72ZM25.72 21H24.28C24.13 21 24 20.87 24 20.72V18.28C24 18.13 24.13 18 24.28 18H25.72C25.87 18 26 18.13 26 18.28V20.72C26 20.88 25.88 21 25.72 21ZM27.28 21H28.72C28.88 21 29 20.88 29 20.72V18.28C29 18.13 28.87 18 28.72 18H27.28C27.13 18 27 18.13 27 18.28V20.72C27 20.87 27.13 21 27.28 21ZM25.72 25H24.28C24.13 25 24 24.87 24 24.72V22.28C24 22.13 24.13 22 24.28 22H25.72C25.87 22 26 22.13 26 22.28V24.72C26 24.88 25.88 25 25.72 25ZM27.28 25H28.72C28.88 25 29 24.88 29 24.72V22.28C29 22.13 28.87 22 28.72 22H27.28C27.13 22 27 22.13 27 22.28V24.72C27 24.87 27.13 25 27.28 25Z" fill="#83CBFF"/>
          <path d="M16 18C17.6569 18 19 16.6569 19 15C19 13.3431 17.6569 12 16 12C14.3431 12 13 13.3431 13 15C13 16.6569 14.3431 18 16 18Z" fill="white"/>
          <path d="M15.51 6.1994V2.47C15.51 2.21 15.72 2 15.98 2H16.04C16.3 2 16.51 2.21 16.51 2.47V6.21258C16.5559 6.2437 16.5995 6.27951 16.64 6.31999L23.67 13.35C23.88 13.56 24 13.84 24 14.14L23.99 15.96C24 15.97 24 15.99 24 16.01C24 16.29 23.78 16.51 23.5 16.51C23.22 16.51 23 16.29 23 16.01C23 16 23.0025 15.9925 23.005 15.985C23.0075 15.9775 23.01 15.97 23.01 15.96H23V14.75C23 14.49 22.89 14.24 22.71 14.06L16.56 7.91C16.25 7.6 15.75 7.6 15.44 7.91L9.28999 14.06C9.09999 14.24 9 14.49 9 14.75V15.96H8.99C8.99 15.97 8.9925 15.9775 8.995 15.985C8.9975 15.9925 9 16 9 16.01C9 16.29 8.78 16.51 8.5 16.51C8.22 16.51 8 16.29 8 16.01C8 16 8.0025 15.9925 8.005 15.985C8.0075 15.9775 8.00999 15.97 8.00999 15.96H8V14.14C8 13.85 8.11999 13.56 8.32999 13.35L15.36 6.31999C15.4063 6.27366 15.4567 6.23347 15.51 6.1994ZM15.5 14.91C15.5 14.9281 15.5009 14.946 15.5027 14.9636C15.4874 15.1077 15.5365 15.2565 15.65 15.37L17.13 16.85C17.22 16.95 17.35 17 17.48 17C17.61 17 17.73 16.95 17.84 16.85C18.04 16.65 18.04 16.34 17.84 16.14L16.5 14.8V13.5C16.5 13.22 16.28 13 16 13C15.72 13 15.5 13.22 15.5 13.5V14.91ZM19.01 30H12.96V24.7C12.96 24.31 13.27 24 13.66 24H18.31C18.7 24 19.01 24.31 19.01 24.7V30Z" fill="#7D4533"/>
        </g>
      </g>
      <g transform="translate(332, 0)">
        <path id="ITEM_1_TEXT_BG" d="M -24 -46 L 374 -46 L 414 -8 L 414 140 L 30 140 L -46 82 L -46 16 Z" fill="var(--panel)" fill-opacity="0.96" stroke="var(--primary-text)" stroke-opacity="0.12" stroke-width="1.5" filter="url(#svg9132fca5-shadow)"/>
        <rect x="386" y="-28" width="10" height="104" rx="5" fill="var(--accent-1)" opacity="0.7"/>
        <line x1="22" y1="10" x2="348" y2="10" stroke="var(--accent-1)" stroke-width="3" opacity="0.3"/>
        <text id="ITEM_1_HEAD" data-bg-id="ITEM_1_TEXT_BG" font-weight="700" font-size="26" fill="var(--accent-1)" x="22.0" y="-28.0" fill-opacity="1.0" stroke="none" style="font-size: 30px; font-family: Inter, Segoe UI, Kalam, Roboto, Helvetica, Arial, sans-serif; font-weight: 700; letter-spacing:-0.4px;" data-final-font-size="30">
          <tspan x="22.0" dy="25.25px">Initial Sighting</tspan>
        </text>
        <rect id="ITEM_1_HEAD_FRAME" x="22" y="-28" width="334" height="34" fill="none"/>
        <text id="ITEM_1_BODY" data-bg-id="ITEM_1_TEXT_BG" font-size="18.5" fill="var(--primary-text)" x="22.0" y="20.0" style="font-size: 25px; font-family: Inter, Segoe UI, Kalam, Roboto, Helvetica, Arial, sans-serif; font-weight: 400;" data-final-font-size="25">
          <tspan x="22.0" dy="22.90px">Students and teachers witness</tspan>
          <tspan x="22.0" dy="28.75px">aerial activity in April 1966</tspan>
        </text>
        <rect id="ITEM_1_BODY_FRAME" x="22" y="20" width="352" height="72" fill="none"/>
      </g>
    </g>
    <g transform="translate(960, 395)">
      <circle cx="0" cy="0" r="18" fill="var(--panel)" stroke="var(--border)" stroke-width="4"/>
      <circle cx="0" cy="0" r="7" fill="var(--accent-2)"/>
      <line x1="0" y1="0" x2="-220" y2="0" stroke="var(--accent-2)" stroke-width="16" stroke-linecap="round" opacity="0.18"/>
      <line x1="0" y1="0" x2="-220" y2="0" stroke="var(--accent-2)" stroke-width="4" stroke-linecap="round"/>
      <circle cx="-220" cy="0" r="60" fill="var(--accent-2)" opacity="0.14"/>
      <circle id="ITEM_2_NODE" cx="-220" cy="0" r="48" fill="var(--panel)" stroke="var(--accent-2)" stroke-width="3"/>
      <circle id="ITEM_2_PAD" cx="-220" cy="0" r="42" fill="var(--icon-pad-bg)" stroke="var(--primary-text)" opacity="0.94" fill-opacity="0.9" stroke-width="2"/>
      <circle id="ITEM_2_PAD_INNER" cx="-220" cy="0" r="32.76" fill="var(--accent-2)" fill-opacity="0.22"/>
      <circle cx="-220" cy="0" r="32" fill="none" stroke="var(--accent-2)" stroke-width="3" stroke-dasharray="6 4"/>
      <g id="ITEM_2_ICON" transform="translate(-250, -30)" data-icon-size="60" stroke-dasharray="6 4">
        <g transform="translate(-4.943999999999997,-9.311999999999994) scale(2.1839999999999997)">
          <path d="M4 7C4 5.89543 4.89543 5 6 5H29C30.1046 5 31 5.89543 31 7V29C31 30.1046 30.1046 31 29 31H4C2.34315 31 1 29.6569 1 28V10C1 8.34314 2.34315 7 4 7Z" fill="#B4ACBC"/>
          <path d="M28 10C28 8.89543 27.1046 8 26 8H4C2.89543 8 2 8.89543 2 10V28C2 29.1046 2.89543 30 4 30H29.5C28.6716 30 28 29.3284 28 28.5V10Z" fill="#F3EEF8"/>
          <path d="M4 11C4 10.4477 4.44772 10 5 10H25C25.5523 10 26 10.4477 26 11C26 11.5523 25.5523 12 25 12H5C4.44772 12 4 11.5523 4 11ZM4 14.5C4 14.2239 4.22386 14 4.5 14H25.5C25.7761 14 26 14.2239 26 14.5C26 14.7761 25.7761 15 25.5 15H4.5C4.22386 15 4 14.7761 4 14.5ZM19.5 17C19.2239 17 19 17.2239 19 17.5C19 17.7761 19.2239 18 19.5 18H25.5C25.7761 18 26 17.7761 26 17.5C26 17.2239 25.7761 17 25.5 17H19.5ZM19 20.5C19 20.2239 19.2239 20 19.5 20H25.5C25.7761 20 26 20.2239 26 20.5C26 20.7761 25.7761 21 25.5 21H19.5C19.2239 21 19 20.7761 19 20.5ZM19.5 23C19.2239 23 19 23.2239 19 23.5C19 23.7761 19.2239 24 19.5 24H25.5C25.7761 24 26 23.7761 26 23.5C26 23.2239 25.7761 23 25.5 23H19.5ZM19 26.5C19 26.2239 19.2239 26 19.5 26H25.5C25.7761 26 26 26.2239 26 26.5C26 26.7761 25.7761 27 25.5 27H19.5C19.2239 27 19 26.7761 19 26.5ZM6 17C4.89543 17 4 17.8954 4 19V25C4 26.1046 4.89543 27 6 27H15C16.1046 27 17 26.1046 17 25V19C17 17.8954 16.1046 17 15 17H6Z" fill="#998EA4"/>
        </g>
      </g>
      <g transform="translate(-332, 0)">
        <path id="ITEM_2_TEXT_BG" d="M 24 -46 L -374 -46 L -414 -8 L -414 140 L -30 140 L 46 82 L 46 16 Z" fill="var(--panel)" fill-opacity="0.96" stroke="var(--primary-text)" stroke-opacity="0.12" stroke-width="1.5" filter="url(#svg9132fca5-shadow)"/>
        <rect x="-396" y="-28" width="10" height="104" rx="5" fill="var(--accent-2)" opacity="0.7"/>
        <line x1="-22" y1="10" x2="-348" y2="10" stroke="var(--accent-2)" stroke-width="3" opacity="0.3"/>
        <text id="ITEM_2_HEAD" data-bg-id="ITEM_2_TEXT_BG" text-anchor="end" font-weight="700" font-size="26" fill="var(--accent-2)" x="-22.0" y="-28.0" fill-opacity="1.0" stroke="none" style="font-size: 30px; font-family: Inter, Segoe UI, Kalam, Roboto, Helvetica, Arial, sans-serif; font-weight: 700; letter-spacing:-0.4px;" data-final-font-size="30">
          <tspan x="-22.0" dy="25.25px">Press Coverage</tspan>
        </text>
        <rect id="ITEM_2_HEAD_FRAME" x="-356" y="-28" width="334" height="34" fill="none"/>
        <text id="ITEM_2_BODY" data-bg-id="ITEM_2_TEXT_BG" text-anchor="end" font-size="18.5" fill="var(--primary-text)" x="-22.0" y="20.0" style="font-size: 23px; font-family: Inter, Segoe UI, Kalam, Roboto, Helvetica, Arial, sans-serif; font-weight: 400;" data-final-font-size="23">
          <tspan x="-22.0" dy="22.22px">Dandenong Journal publishes</tspan>
          <tspan x="-22.0" dy="26.45px">front-page news of the sighting</tspan>
        </text>
        <rect id="ITEM_2_BODY_FRAME" x="-374" y="20" width="352" height="72" fill="none"/>
      </g>
    </g>
    <g transform="translate(960, 550)">
      <circle cx="0" cy="0" r="18" fill="var(--panel)" stroke="var(--border)" stroke-width="4"/>
      <circle cx="0" cy="0" r="7" fill="var(--accent-3)"/>
      <line x1="0" y1="0" x2="220" y2="0" stroke="var(--accent-3)" stroke-width="16" stroke-linecap="round" opacity="0.18"/>
      <line x1="0" y1="0" x2="220" y2="0" stroke="var(--accent-3)" stroke-width="4" stroke-linecap="round"/>
      <circle cx="220" cy="0" r="60" fill="var(--accent-3)" opacity="0.14"/>
      <circle id="ITEM_3_NODE" cx="220" cy="0" r="48" fill="var(--panel)" stroke="var(--accent-3)" stroke-width="3"/>
      <circle id="ITEM_3_PAD" cx="220" cy="0" r="42" fill="var(--icon-pad-bg)" stroke="var(--primary-text)" opacity="0.94" fill-opacity="0.9" stroke-width="2"/>
      <circle id="ITEM_3_PAD_INNER" cx="220" cy="0" r="32.76" fill="var(--accent-3)" fill-opacity="0.22"/>
      <circle cx="220" cy="0" r="32" fill="none" stroke="var(--accent-3)" stroke-width="3" stroke-dasharray="6 4"/>
      <g id="ITEM_3_ICON" transform="translate(190, -30)" data-icon-size="60" stroke-dasharray="6 4">
        <g transform="translate(-7.439999999999998,-7.439999999999998) scale(2.34)">
          <path d="M8 26H27V4C27 2.89543 26.1046 2 25 2H8V26Z" fill="#533566"/>
          <path d="M6 27H27V29H6V27Z" fill="#D3D3D3"/>
          <path d="M12.5 7C12.5 6.44772 12.9477 6 13.5 6H18.5C19.0523 6 19.5 6.44772 19.5 7V9C19.5 9.55228 19.0523 10 18.5 10H13.5C12.9477 10 12.5 9.55228 12.5 9V7Z" fill="white"/>
          <path d="M6.5 2C5.67157 2 5 2.67157 5 3.5V28H6C6 27.4477 6.44772 27 7 27H8V2H6.5Z" fill="#321B41"/>
          <path d="M6.5 26C5.67157 26 5 26.6716 5 27.5V28.5C5 29.3284 5.67157 30 6.5 30H25.5C26.1531 30 26.7087 29.5826 26.9146 29H7C6.44772 29 6 28.5523 6 28C6 27.4477 6.44772 27 7 27H27V26H6.5Z" fill="#6B438B"/>
          <path d="M23 2H24V30H23V2Z" fill="#6B438B"/>
        </g>
      </g>
      <g transform="translate(332, 0)">
        <path id="ITEM_3_TEXT_BG" d="M -24 -46 L 374 -46 L 414 -8 L 414 140 L 30 140 L -46 82 L -46 16 Z" fill="var(--panel)" fill-opacity="0.96" stroke="var(--primary-text)" stroke-opacity="0.12" stroke-width="1.5" filter="url(#svg9132fca5-shadow)"/>
        <rect x="386" y="-28" width="10" height="104" rx="5" fill="var(--accent-3)" opacity="0.7"/>
        <line x1="22" y1="10" x2="348" y2="10" stroke="var(--accent-3)" stroke-width="3" opacity="0.3"/>
        <text id="ITEM_3_HEAD" data-bg-id="ITEM_3_TEXT_BG" font-weight="700" font-size="26" fill="var(--accent-3)" x="22.0" y="-28.0" fill-opacity="1.0" stroke="none" style="font-size: 30px; font-family: Inter, Segoe UI, Kalam, Roboto, Helvetica, Arial, sans-serif; font-weight: 700; letter-spacing:-0.4px;" data-final-font-size="30">
          <tspan x="22.0" dy="25.25px">Civilian Investigation</tspan>
        </text>
        <rect id="ITEM_3_HEAD_FRAME" x="22" y="-28" width="334" height="34" fill="none"/>
        <text id="ITEM_3_BODY" data-bg-id="ITEM_3_TEXT_BG" font-size="18.5" fill="var(--primary-text)" x="22.0" y="20.0" style="font-size: 22px; font-family: Inter, Segoe UI, Kalam, Roboto, Helvetica, Arial, sans-serif; font-weight: 400;" data-final-font-size="22">
          <tspan x="22.0" dy="21.88px">Victorian UFO Research Society</tspan>
          <tspan x="22.0" dy="25.30px">inspects the scene and witnesses</tspan>
        </text>
        <rect id="ITEM_3_BODY_FRAME" x="22" y="20" width="352" height="72" fill="none"/>
      </g>
    </g>
    <g transform="translate(960, 705)">
      <circle cx="0" cy="0" r="18" fill="var(--panel)" stroke="var(--border)" stroke-width="4"/>
      <circle cx="0" cy="0" r="7" fill="var(--accent-4)"/>
      <line x1="0" y1="0" x2="-220" y2="0" stroke="var(--accent-4)" stroke-width="16" stroke-linecap="round" opacity="0.18"/>
      <line x1="0" y1="0" x2="-220" y2="0" stroke="var(--accent-4)" stroke-width="4" stroke-linecap="round"/>
      <circle cx="-220" cy="0" r="60" fill="var(--accent-4)" opacity="0.14"/>
      <circle id="ITEM_4_NODE" cx="-220" cy="0" r="48" fill="var(--panel)" stroke="var(--accent-4)" stroke-width="3"/>
      <circle id="ITEM_4_PAD" cx="-220" cy="0" r="42" fill="var(--icon-pad-bg)" stroke="var(--primary-text)" opacity="0.94" fill-opacity="0.9" stroke-width="2"/>
      <circle id="ITEM_4_PAD_INNER" cx="-220" cy="0" r="32.76" fill="var(--accent-4)" fill-opacity="0.22"/>
      <circle cx="-220" cy="0" r="32" fill="none" stroke="var(--accent-4)" stroke-width="3" stroke-dasharray="6 4"/>
      <g id="ITEM_4_ICON" transform="translate(-250, -30)" data-icon-size="60" stroke-dasharray="6 4">
        <g transform="translate(-5.5362711864406755,-5.536271186440677) scale(2.9613559322033898)" vector-effect="non-scaling-stroke" stroke-width="2.43" stroke-linecap="round" stroke-linejoin="round" stroke-opacity="1.0">
          <path d="M16.95 9.01c3.02 .739 5.05 2.123 5.05 3.714c0 2.367 -4.48 4.276 -10 4.276s-10 -1.909 -10 -4.276c0 -1.59 2.04 -2.985 5.07 -3.724" vector-effect="non-scaling-stroke" fill="none" stroke="#f1f5f9"/>
          <path d="M7 9c0 1.105 2.239 2 5 2s5 -.895 5 -2v-.035c0 -2.742 -2.239 -4.965 -5 -4.965s-5 2.223 -5 4.965v.035" vector-effect="non-scaling-stroke" fill="none" stroke="#f1f5f9"/>
          <path d="M15 17l2 3" vector-effect="non-scaling-stroke" fill="none" stroke="#f1f5f9"/>
          <path d="M8.5 17l-1.5 3" vector-effect="non-scaling-stroke" fill="none" stroke="#f1f5f9"/>
          <path d="M12 14h.01" vector-effect="non-scaling-stroke" fill="none" stroke="#f1f5f9"/>
          <path d="M7 13h.01" vector-effect="non-scaling-stroke" fill="none" stroke="#f1f5f9"/>
          <path d="M17 13h.01" vector-effect="non-scaling-stroke" fill="none" stroke="#f1f5f9"/>
        </g>
      </g>
      <g transform="translate(-332, 0)">
        <path id="ITEM_4_TEXT_BG" d="M 24 -46 L -374 -46 L -414 -8 L -414 140 L -30 140 L 46 82 L 46 16 Z" fill="var(--panel)" fill-opacity="0.96" stroke="var(--primary-text)" stroke-opacity="0.12" stroke-width="1.5" filter="url(#svg9132fca5-shadow)"/>
        <rect x="-396" y="-28" width="10" height="104" rx="5" fill="var(--accent-4)" opacity="0.7"/>
        <line x1="-22" y1="10" x2="-348" y2="10" stroke="var(--accent-4)" stroke-width="3" opacity="0.3"/>
        <text id="ITEM_4_HEAD" data-bg-id="ITEM_4_TEXT_BG" text-anchor="end" font-weight="700" font-size="26" fill="var(--accent-4)" x="-22.0" y="-28.0" fill-opacity="1.0" stroke="none" style="font-size: 30px; font-family: Inter, Segoe UI, Kalam, Roboto, Helvetica, Arial, sans-serif; font-weight: 700; letter-spacing:-0.4px;" data-final-font-size="30">
          <tspan x="-22.0" dy="25.25px">Media Preservation</tspan>
        </text>
        <rect id="ITEM_4_HEAD_FRAME" x="-356" y="-28" width="334" height="34" fill="none"/>
        <text id="ITEM_4_BODY" data-bg-id="ITEM_4_TEXT_BG" text-anchor="end" font-size="18.5" fill="var(--primary-text)" x="-22.0" y="20.0" style="font-size: 22px; font-family: Inter, Segoe UI, Kalam, Roboto, Helvetica, Arial, sans-serif; font-weight: 400;" data-final-font-size="22">
          <tspan x="-22.0" dy="21.88px">School journal contents survive</tspan>
          <tspan x="-22.0" dy="25.30px">via UFO periodical republication</tspan>
        </text>
        <rect id="ITEM_4_BODY_FRAME" x="-374" y="20" width="352" height="72" fill="none"/>
      </g>
    </g>
    <g transform="translate(960, 860)">
      <circle cx="0" cy="0" r="18" fill="var(--panel)" stroke="var(--border)" stroke-width="4"/>
      <circle cx="0" cy="0" r="7" fill="var(--accent-5)"/>
      <line x1="0" y1="0" x2="220" y2="0" stroke="var(--accent-5)" stroke-width="16" stroke-linecap="round" opacity="0.18"/>
      <line x1="0" y1="0" x2="220" y2="0" stroke="var(--accent-5)" stroke-width="4" stroke-linecap="round"/>
      <circle cx="220" cy="0" r="60" fill="var(--accent-5)" opacity="0.14"/>
      <circle id="ITEM_5_NODE" cx="220" cy="0" r="48" fill="var(--panel)" stroke="var(--accent-5)" stroke-width="3"/>
      <circle id="ITEM_5_PAD" cx="220" cy="0" r="42" fill="var(--icon-pad-bg)" stroke="var(--primary-text)" opacity="0.94" fill-opacity="0.9" stroke-width="2"/>
      <circle id="ITEM_5_PAD_INNER" cx="220" cy="0" r="32.76" fill="var(--accent-5)" fill-opacity="0.22"/>
      <circle cx="220" cy="0" r="32" fill="none" stroke="var(--accent-5)" stroke-width="3" stroke-dasharray="6 4"/>
      <g id="ITEM_5_ICON" transform="translate(190, -30)" data-icon-size="60" stroke-dasharray="6 4">
        <g transform="translate(-7.439999999999998,-17.969999999999995) scale(2.34)">
          <path d="M5.5 11C5.22386 11 5 11.2239 5 11.5V13H9V11.5C9 11.2239 8.77614 11 8.5 11H5.5Z" fill="#D3D3D3"/>
          <path d="M21.5 11C21.2239 11 21 11.2239 21 11.5V13H27V11.5C27 11.2239 26.7761 11 26.5 11H21.5Z" fill="#D3D3D3"/>
          <path d="M2 14C2 12.8954 2.89543 12 4 12H28C29.1046 12 30 12.8954 30 14V16.5L28 22L30 27.5V28C30 29.1046 29.1046 30 28 30H4C2.89543 30 2 29.1046 2 28V27.5L3.5 22L2 16.5V14Z" fill="#E6E6E6"/>
          <path d="M2 16.5C2 16.2239 2.22386 16 2.5 16H29.5C29.7761 16 30 16.2239 30 16.5V27.5C30 27.7761 29.7761 28 29.5 28H2.5C2.22386 28 2 27.7761 2 27.5V16.5Z" fill="#533566"/>
          <path d="M22 22C22 25.3137 19.3137 28 16 28C12.6863 28 10 25.3137 10 22C10 18.6863 12.6863 16 16 16C19.3137 16 22 18.6863 22 22Z" fill="#321B41"/>
          <path d="M16 27C18.7614 27 21 24.7614 21 22C21 19.2386 18.7614 17 16 17C13.2386 17 11 19.2386 11 22C11 24.7614 13.2386 27 16 27ZM16 29C12.134 29 9 25.866 9 22C9 18.134 12.134 15 16 15C19.866 15 23 18.134 23 22C23 25.866 19.866 29 16 29Z" fill="#9B9B9B"/>
          <path d="M18.5 22C18.5 23.3807 17.3807 24.5 16 24.5C14.6193 24.5 13.5 23.3807 13.5 22C13.5 20.6193 14.6193 19.5 16 19.5C17.3807 19.5 18.5 20.6193 18.5 22Z" fill="#433B6B"/>
          <path d="M19.0825 19.875C19.4967 20.5924 19.4448 21.3979 18.9665 21.674C18.4882 21.9501 17.7647 21.5924 17.3505 20.875C16.9363 20.1575 16.9882 19.3521 17.4665 19.0759C17.9448 18.7998 18.6683 19.1575 19.0825 19.875Z" fill="white"/>
        </g>
      </g>
      <g transform="translate(332, 0)">
        <path id="ITEM_5_TEXT_BG" d="M -24 -46 L 374 -46 L 414 -8 L 414 140 L 30 140 L -46 82 L -46 16 Z" fill="var(--panel)" fill-opacity="0.96" stroke="var(--primary-text)" stroke-opacity="0.12" stroke-width="1.5" filter="url(#svg9132fca5-shadow)"/>
        <rect x="386" y="-28" width="10" height="104" rx="5" fill="var(--accent-5)" opacity="0.7"/>
        <line x1="22" y1="10" x2="348" y2="10" stroke="var(--accent-5)" stroke-width="3" opacity="0.3"/>
        <text id="ITEM_5_HEAD" data-bg-id="ITEM_5_TEXT_BG" font-weight="700" font-size="26" fill="var(--accent-5)" x="22.0" y="-28.0" fill-opacity="1.0" stroke="none" style="font-size: 30px; font-family: Inter, Segoe UI, Kalam, Roboto, Helvetica, Arial, sans-serif; font-weight: 700; letter-spacing:-0.4px;" data-final-font-size="30">
          <tspan x="22.0" dy="25.25px">Modern Documentation</tspan>
        </text>
        <rect id="ITEM_5_HEAD_FRAME" x="22" y="-28" width="334" height="34" fill="none"/>
        <text id="ITEM_5_BODY" data-bg-id="ITEM_5_TEXT_BG" font-size="18.5" fill="var(--primary-text)" x="22.0" y="20.0" style="font-size: 24px; font-family: Inter, Segoe UI, Kalam, Roboto, Helvetica, Arial, sans-serif; font-weight: 400;" data-final-font-size="24">
          <tspan x="22.0" dy="22.56px">Documentaries and researchers</tspan>
          <tspan x="22.0" dy="27.60px">map memories sixty years later</tspan>
        </text>
        <rect id="ITEM_5_BODY_FRAME" x="22" y="20" width="352" height="72" fill="none"/>
      </g>
    </g>
  </g>
</svg>
